<svg width="143" height="26" viewBox="0 0 143 26" fill="none" xmlns="http://www.w3.org/2000/svg">
<g clip-path="url(#clip0_1255_5953)">
<path d="M7.51162 1.98494C5.50657 2.9862 3.81654 4.52149 2.62759 6.4218C1.37269 8.43141 0.723304 10.7602 0.757167 13.1295C0.725912 15.2338 1.25529 17.3085 2.29091 19.1404C3.44318 21.1423 5.14416 22.7726 7.19291 23.8384C9.13998 24.9229 11.3306 25.4946 13.5591 25.5C14.3456 25.5068 15.1307 25.4333 15.9023 25.2807C17.0045 25.0163 18.0927 24.6968 19.1628 24.3234V16.9885C18.4827 17.7625 17.6478 18.3849 16.712 18.8155C15.7761 19.2461 14.7604 19.4754 13.7304 19.4884C12.1462 19.4973 10.6122 18.9323 9.41197 17.8979C8.71248 17.3112 8.15763 16.571 7.79055 15.7349C7.42346 14.8988 7.25403 13.9893 7.2954 13.0771C7.22424 11.4049 7.81997 9.77294 8.95154 8.54015C10.0831 7.30736 11.6579 6.57472 13.3294 6.50338C13.4685 6.4974 13.6084 6.4959 13.7476 6.50338C14.7911 6.4891 15.8235 6.71844 16.7629 7.17318C17.7023 7.62792 18.5228 8.29553 19.1591 9.12299V1.70502C17.361 0.953483 15.4384 0.544792 13.4902 0.5C11.4002 0.49966 9.34173 1.00992 7.49367 1.98644" fill="#78909E"/>
<path d="M34.7074 10.5249L37.0162 17.306H32.3896L34.7074 10.5249ZM31.7401 3.96546L23.5312 25.2H29.3894L30.8573 21.4966H38.5111L39.8884 25.2H45.8109L37.7764 3.95947L31.7401 3.96546ZM66.1102 3.96546V16.955L55.9037 3.96546H50.3478V25.203H55.8955V12.191L66.102 25.2H71.6497V3.95947L66.1102 3.96546ZM87.3829 10.5279L89.6738 17.306H85.0479L87.3829 10.5279ZM84.3805 3.96546L76.1761 25.203H82.0365L83.5044 21.4996H91.1574L92.5318 25.203H98.4543L90.4205 3.96546H84.3805ZM108.546 8.21371H109.576C110.406 8.15701 111.234 8.35212 111.951 8.77355C112.264 9.02027 112.517 9.33474 112.691 9.69332C112.865 10.0519 112.955 10.4453 112.955 10.8438C112.955 11.2423 112.865 11.6357 112.691 11.9943C112.517 12.3528 112.264 12.6673 111.951 12.914C111.234 13.3349 110.406 13.5297 109.576 13.4731H108.546V8.21371ZM103.01 3.96546V25.203H108.561V17.0388L113.841 25.1917H120.749L114.045 16.4984C115.047 16.3089 115.986 15.8729 116.777 15.2298C117.399 14.671 117.884 13.9758 118.192 13.1984C118.541 12.3565 118.719 11.4535 118.716 10.5422C118.735 9.67741 118.583 8.81744 118.27 8.01134C117.956 7.20525 117.487 6.46881 116.889 5.84409C116.282 5.20602 115.533 4.72033 114.702 4.42651C113.716 4.10389 112.682 3.95202 111.644 3.97744L103.01 3.96546ZM136.035 3.96546L132.163 9.74655L128.111 3.96546H121.496L129.217 14.997V25.2015H134.764V14.994L142.752 3.96546H136.035Z" fill="#78909E"/>
<path d="M103.008 3.87109H102.898V4.23559H103.008V3.87109Z" fill="#78909E"/>
</g>
<defs>
<clipPath id="clip0_1255_5953">
<rect width="142" height="25" fill="white" transform="translate(0.751953 0.5)"/>
</clipPath>
</defs>
</svg>
