<svg width="176" height="24" viewBox="0 0 176 24" fill="none" xmlns="http://www.w3.org/2000/svg">
<g clip-path="url(#clip0_1255_5958)">
<path d="M32.2073 9.58172V6.36743L27.9927 6.71947V23.6634H32.2073V14.4644C32.2073 12.8419 32.778 11.495 33.7877 10.546C34.7975 9.59702 36.2462 9.046 38.0462 9.046C39.2608 9.046 40.2267 9.47458 40.8852 10.2246C41.5437 10.9746 41.9242 12.0766 41.9242 13.4236V23.6634H46.1388V12.2603C46.1388 10.4542 45.5242 8.95417 44.3534 7.92866C43.1681 6.90315 41.4706 6.38274 39.4072 6.38274C37.856 6.38274 36.3633 6.70417 35.0609 7.31641C33.9048 7.86743 32.9243 8.64804 32.2073 9.58172Z" fill="#78909E"/>
<path d="M69.6116 23.648V0L65.3971 0.352041V9.01531C63.6117 7.31633 61.2849 6.38265 58.7825 6.38265C56.2655 6.38265 54.1143 7.16327 52.5924 8.67857C51.0412 10.2092 50.2363 12.398 50.2363 14.9847C50.2363 17.6939 51.0705 19.9592 52.5924 21.5357C54.0997 23.1122 56.2655 24 58.8557 24C61.6362 24 64.1386 22.9439 65.7629 21.0612V23.6633L69.6116 23.648ZM56.1338 10.6071C57.0557 9.4898 58.3435 8.80102 59.8508 8.80102C61.4605 8.80102 62.8508 9.4898 63.8459 10.6071C64.841 11.7245 65.4556 13.301 65.4556 15.1531C65.4556 17.0663 64.8703 18.6582 63.8898 19.7908C62.9093 20.9082 61.5191 21.5663 59.8655 21.5663C58.3289 21.5663 57.0265 20.9082 56.1045 19.7755C55.1826 18.6429 54.6265 17.0204 54.6265 15.0765C54.6411 13.2704 55.2265 11.7245 56.1338 10.6071ZM113.557 8.87755C113.235 8.28061 112.738 7.80612 112.079 7.45408C110.806 6.71939 108.772 6.38265 105.948 6.38265C103.328 6.38265 100.401 6.75 97.6063 7.36224L97.3429 7.42347L98.0454 9.30612L98.221 9.27551C100.782 8.92347 103.094 8.80102 105.26 8.80102C106.972 8.80102 108.128 9 108.845 9.39796C109.196 9.59694 109.445 9.84184 109.592 10.1173C109.753 10.4082 109.826 10.7602 109.826 11.1735V12.398C109.826 12.398 104.353 12.7347 102.538 12.8724C100.592 13.0714 98.9966 13.6837 97.899 14.6633C96.7868 15.6429 96.1868 16.9898 96.1868 18.5816C96.1868 20.3418 96.86 21.7194 98.1771 22.6531C99.421 23.5408 101.236 23.9847 103.387 23.9847C105.465 23.9847 108.084 23.449 110.162 20.9082V23.648H114.026V10.9898C114.026 10.1633 113.879 9.45918 113.557 8.87755ZM109.84 17.7245C109.84 18.5357 109.328 19.4235 108.406 20.1122C107.455 20.801 106.387 21.2755 104.748 21.2755C103.416 21.2755 102.392 21.0153 101.689 20.5408C100.958 20.0357 100.577 19.2857 100.577 18.2908C100.577 17.2959 100.899 16.4847 101.455 15.8878C102.011 15.2908 102.845 14.9082 103.884 14.801C105.362 14.6786 109.84 14.3724 109.84 14.3724V17.7245Z" fill="#78909E"/>
<path d="M121.65 6.71948H116.792L125.221 23.6634H128.499L137.103 6.71948H134.279L127.869 19.347L121.65 6.71948Z" fill="#78909E"/>
<path d="M148.269 6.38257C145.357 6.38257 142.825 7.16318 140.996 8.66318C139.079 10.2397 138.069 12.505 138.069 15.1836C138.069 17.8622 139.079 20.1122 140.996 21.6887C142.84 23.204 145.357 23.9999 148.269 23.9999C151.166 23.9999 153.683 23.204 155.498 21.6887C157.4 20.1122 158.395 17.8469 158.395 15.1836C158.395 12.505 157.386 10.2397 155.498 8.66318C153.669 7.16318 151.166 6.38257 148.269 6.38257ZM144.127 10.5152C145.152 9.36726 146.571 8.58665 148.239 8.58665C151.591 8.58665 153.947 11.2958 153.947 15.1224C153.961 17.0509 153.332 18.6581 152.322 19.806C151.313 20.9693 149.893 21.7652 148.239 21.7652C146.571 21.7652 145.152 20.9693 144.127 19.806C143.103 18.6428 142.474 17.0356 142.474 15.1224C142.474 13.2397 143.118 11.6479 144.127 10.5152Z" fill="#78909E"/>
<path d="M166.532 10.4082V6.36743L162.317 6.71947V23.6634H166.532V16.546C166.532 14.6021 167.088 12.9491 168.127 11.7858C169.21 10.5613 169.956 9.87253 171.303 9.44396C172.327 9.12253 173.073 9.10723 173.937 9.10723H174.727L176 6.55111L175.693 6.50519C175.195 6.42866 174.215 6.38274 173.483 6.38274C170.644 6.38274 168.025 7.91335 166.532 10.4082Z" fill="#78909E"/>
<path d="M5.23687 13.5764C5.99784 9.35196 10.11 6.38257 14.4709 6.38257C21.0562 6.38257 23.4269 11.3418 23.4269 14.0203C23.4269 14.5713 23.3244 14.9999 23.0317 15.2907C22.7391 15.5815 22.3293 15.6734 21.8318 15.6734H9.27584C9.49535 17.602 10.3295 19.0713 11.5295 20.0662C12.788 21.1224 14.4709 21.6581 16.2855 21.6581C18.4952 21.6581 20.4562 21.1377 22.4318 20.2805L22.6366 20.1887L23.383 22.0713L23.1781 22.1632C20.2806 23.5254 17.6757 23.9846 14.705 23.9846C12.1734 23.9846 9.77339 23.2346 8.00269 21.7346C6.36369 20.3418 5.28077 18.306 5.1198 15.6581H0.36377L1.43205 13.5764H5.23687ZM9.29047 13.5764H17.3977C18.2025 13.5764 18.7001 13.454 18.9928 13.2703C19.2562 13.102 19.3733 12.8418 19.3733 12.505C19.3733 10.6989 17.5294 8.51012 14.4855 8.51012C12.8612 8.51012 11.6319 9.15298 10.7539 10.1479C9.96363 11.0662 9.46608 12.306 9.29047 13.5764ZM83.3968 6.38257C78.5529 6.38257 74.0457 10.0407 74.0457 14.9999C74.0457 17.9846 75.1725 20.2499 76.9432 21.7499C78.7139 23.2499 81.1138 23.9999 83.6455 23.9999C86.6162 23.9999 89.2211 23.5254 92.1186 22.1785L92.3235 22.0867L91.5771 20.204L91.3722 20.2958C89.3967 21.153 87.4357 21.6734 85.226 21.6734C83.4114 21.6734 81.7431 21.1224 80.47 20.0816C79.27 19.0867 78.4212 17.6173 78.2163 15.6887H90.7576C91.2552 15.6887 91.6796 15.5969 91.9576 15.306C92.2503 15.0152 92.3527 14.5867 92.3527 14.0356C92.3673 11.3418 89.982 6.38257 83.3968 6.38257ZM86.3382 13.5764H78.231C78.4066 12.2907 78.8895 11.0662 79.709 10.1479C80.5724 9.16828 81.8163 8.51012 83.4407 8.51012C86.4699 8.51012 88.3284 10.6989 88.3284 12.505C88.3284 12.8418 88.2259 13.102 87.9479 13.2703C87.6552 13.4693 87.1577 13.5918 86.3382 13.5764Z" fill="#78909E"/>
</g>
<defs>
<clipPath id="clip0_1255_5958">
<rect width="175.636" height="24" fill="white" transform="translate(0.36377)"/>
</clipPath>
</defs>
</svg>
