<svg width="151" height="32" viewBox="0 0 151 32" fill="none" xmlns="http://www.w3.org/2000/svg">
<path d="M149.62 6.89831C149.578 7.33874 149.51 7.77631 149.416 8.2087C149.313 8.6378 148.337 11.0501 148.266 11.4487C148.222 11.8366 148.202 12.2268 148.206 12.6172C147.91 12.7469 147.228 13.2547 146.867 13.2547C146.506 13.2547 145.645 12.4305 145.27 12.332C145.27 11.3136 145.532 11.2294 145.441 10.7025C145.293 10.0929 145.08 9.50107 144.805 8.93722C144.701 8.67617 144.675 8.39077 144.729 8.11501C144.654 8.22288 144.602 8.34437 144.574 8.47253C144.547 8.60069 144.545 8.733 144.569 8.86186C144.663 9.42472 145.112 10.2721 145.176 10.6434C145.24 11.0148 145.221 11.4412 145.08 11.5356C144.067 11.4257 143.087 11.1071 142.202 10.6C141.519 10.2086 140.815 9.8566 140.092 9.54557C140.523 8.63899 141.064 7.78945 141.705 7.01645C142.236 6.37457 142.868 5.8241 143.578 5.38695C144.549 4.8975 145.636 4.68381 146.721 4.7691C147.383 4.84362 148.038 4.97306 148.679 5.1561C148.679 5.1561 149.307 4.63534 149.788 4.79897C149.652 5.16086 149.495 5.53157 149.495 5.53157L150.118 5.89413C149.931 6.21751 149.765 6.5522 149.621 6.89627L149.62 6.89831ZM121.63 16.1885C121.641 16.9599 121.916 17.7043 122.409 18.2973C122.415 18.3007 122.42 18.3089 122.426 18.3136C122.27 17.811 122.144 17.2998 122.047 16.7826V15.7574C122.172 15.0378 122.388 14.3369 122.689 13.6716C122.683 13.6757 122.683 13.6804 122.68 13.6804C122.677 13.6804 122.656 13.7008 122.647 13.7089C122.384 13.9661 122.164 14.2642 121.996 14.5916L121.959 14.6663C121.775 15.0477 121.667 15.4611 121.64 15.8836C121.634 15.9665 121.628 16.048 121.628 16.1308C121.628 16.1478 121.633 16.1668 121.633 16.1871L121.63 16.1885ZM138.665 10.7405C138.718 10.7103 138.762 10.6665 138.793 10.6136C138.882 10.4767 138.963 10.3343 139.034 10.1872C139.034 9.9156 138.466 9.9448 138.346 9.84771C138.226 9.75062 138.171 9.61007 137.982 9.52724L137.973 9.55575C137.968 9.60532 137.968 9.67254 137.968 9.73704C138 9.91217 138.016 10.0899 138.016 10.268C138.021 10.4969 137.993 10.7254 137.936 10.9469C138.041 10.9857 138.144 11.0311 138.244 11.0827C138.362 10.9436 138.505 10.8266 138.664 10.7371L138.665 10.7405ZM138.596 8.66836L136.386 6.18608L134.952 7.38241L135.007 7.5569C135.057 7.67989 135.114 7.79963 135.178 7.91539C135.251 8.03985 135.331 8.15959 135.419 8.27388C135.517 8.40266 135.625 8.52448 135.741 8.63848C135.757 8.65546 135.777 8.66971 135.791 8.68601C136.105 8.98088 136.475 9.21051 136.878 9.36157C137.114 9.44844 137.362 9.49637 137.614 9.50347L138.6 8.66768L138.596 8.66836ZM137.521 4.56134V3.9075C137.526 3.8696 137.522 3.8312 137.51 3.79489C137.499 3.75859 137.479 3.72521 137.454 3.69702C137.369 3.6553 137.291 3.6028 137.22 3.54086C137.195 3.52185 137.171 3.49741 137.152 3.47908C137 3.51175 136.841 3.49388 136.699 3.42816C136.619 3.40161 136.545 3.36065 136.48 3.3073C136.441 3.27386 136.41 3.23299 136.388 3.18713C136.366 3.14128 136.353 3.09139 136.35 3.04047C136.277 3.04047 136.206 3.03164 136.137 3.0235V3.44852C136.142 3.4655 136.145 3.48587 136.149 3.5008C136.19 3.64097 136.197 3.78853 136.171 3.93205C136.145 4.07557 136.087 4.2112 136 4.32845C135.906 4.46089 135.782 4.56929 135.638 4.64489C135.494 4.7205 135.334 4.76119 135.172 4.76367C135.158 4.88787 135.159 5.01335 135.177 5.13709C135.193 5.2498 135.313 5.55805 135.358 5.72507C135.463 6.02414 135.523 6.33717 135.536 6.65389L135.863 6.37891C135.795 6.11683 135.715 5.84389 135.641 5.57434C135.59 5.38899 135.538 5.2077 135.493 5.03117C135.674 4.99506 135.847 4.92169 135.999 4.81571C136.15 4.70972 136.279 4.5734 136.375 4.41536C136.561 4.47948 136.751 4.52942 136.944 4.56473H137.518L137.521 4.56134ZM138.346 3.72079C138.435 3.63252 138.414 3.41661 138.247 3.05133C138.185 2.97246 138.117 2.89929 138.043 2.83271C137.913 2.9006 137.859 2.9006 137.814 2.92437C137.779 2.98242 137.741 3.038 137.699 3.09071C137.669 3.12534 137.592 3.11244 137.563 3.13688C137.519 3.2471 137.443 3.34168 137.345 3.40846C137.471 3.52514 137.618 3.61724 137.778 3.68005C137.887 3.72282 138.253 3.80498 138.344 3.72282L138.346 3.72079ZM138.769 2.22911C139.155 2.00704 139.487 1.70405 139.744 1.34104C139.673 1.31651 139.605 1.28584 139.54 1.24938C139.275 1.09117 139.049 0.876492 138.877 0.620661C138.643 1.17968 138.276 1.67296 137.808 2.05734C137.83 2.10242 137.849 2.14947 137.862 2.19788C137.867 2.21249 137.871 2.22748 137.873 2.24269C137.897 2.36582 137.899 2.49234 137.879 2.61612C138.193 2.52725 138.494 2.39711 138.773 2.22911H138.769ZM139.875 1.13056C139.875 1.13056 139.881 1.13056 139.883 1.12648C139.889 1.12105 139.893 1.11428 139.896 1.10672C139.899 1.09917 139.9 1.09105 139.899 1.08303C139.848 0.874968 139.728 0.690124 139.56 0.558197C139.467 0.467248 139.366 0.385608 139.257 0.31445C139.139 0.241802 139.046 0.211928 138.992 0.230939C138.986 0.233643 138.98 0.237062 138.975 0.241123C138.97 0.248792 138.966 0.257297 138.964 0.266245C138.955 0.294906 138.957 0.325817 138.97 0.353152C139.042 0.530215 139.155 0.688352 139.298 0.815522C139.54 1.04908 139.795 1.19099 139.875 1.12988L139.875 1.13056ZM137.561 2.09264C137.561 2.08721 137.002 2.13678 137.002 2.13678C137.002 2.13678 136.73 2.32892 136.694 2.49527C136.687 2.61034 136.687 2.72579 136.694 2.84086L137.568 2.85783C137.637 2.7421 137.673 2.6095 137.672 2.47462C137.671 2.33974 137.632 2.2078 137.561 2.09332V2.09264ZM136.942 3.28761C137.4 3.32088 137.375 3.05609 137.375 3.05609L136.584 3.04386C136.584 3.04386 136.484 3.26045 136.942 3.28761ZM135.794 2.352C135.724 2.27499 135.64 2.21149 135.546 2.16461C135.449 2.25424 135.317 2.37916 135.192 2.47422C135.187 2.47897 135.186 2.48304 135.18 2.48304C135.136 2.52315 135.086 2.55697 135.033 2.58353C134.944 2.49606 134.88 2.38666 134.848 2.26646C134.839 2.2388 134.833 2.21001 134.832 2.18091C134.828 2.13921 134.837 2.09727 134.858 2.06082C134.878 2.02437 134.91 1.99518 134.948 1.97722C135.041 1.94185 135.132 1.9001 135.219 1.85229C135.231 1.78549 135.261 1.72337 135.307 1.67305C135.266 1.57682 135.215 1.48567 135.153 1.40146L134.916 1.26092C134.824 1.21328 134.735 1.15928 134.651 1.09933C134.651 1.24938 134.664 1.34104 134.663 1.45103V1.48905C134.663 1.55083 134.668 1.61601 134.672 1.67848C134.672 1.79594 134.677 1.91204 134.677 2.02882H134.474C134.474 1.98982 134.473 1.9508 134.468 1.91204C134.468 1.84414 134.468 1.78711 134.463 1.72057C134.457 1.65403 134.454 1.58478 134.453 1.52096C134.438 1.2582 134.416 1.00631 134.394 0.766637C134.366 0.757283 134.337 0.75091 134.308 0.747626C134.257 0.7388 134.205 0.733368 134.154 0.724541H134.127C134.086 0.724541 134.048 0.728616 134.009 0.728616C133.998 0.757811 134.088 1.28129 134.109 1.37431C134.119 1.42455 134.205 1.9745 134.207 2.00574V2.02882H134.014L134.009 2.03765C133.968 1.79594 133.923 1.56238 133.868 1.33764C133.818 1.1292 133.759 0.930267 133.7 0.739479C133.515 0.762724 133.334 0.809735 133.162 0.879344C133.156 0.882739 133.15 0.88274 133.146 0.888171C133.027 0.939389 132.915 1.00507 132.813 1.08371C132.795 1.09593 132.778 1.10951 132.763 1.12173C132.693 1.19463 132.627 1.27124 132.566 1.35122C132.473 1.47819 132.397 1.597 132.342 1.67576C132.309 1.72329 132.309 1.78779 132.274 1.85976C132.261 1.89778 132.25 1.93655 132.242 1.97586C132.234 2.01785 132.228 2.06024 132.225 2.10283V2.1103C132.236 2.11344 132.246 2.11754 132.256 2.12252C132.324 2.13949 132.382 2.15579 132.445 2.16665C132.608 2.20101 132.773 2.2183 132.94 2.21825C132.954 2.21825 132.97 2.22165 132.985 2.22165C133.064 2.22202 133.143 2.21817 133.222 2.2101H133.227V2.22165C133.292 2.47032 133.42 2.69766 133.6 2.88091C133.74 3.03069 133.907 3.15178 134.093 3.23737C134.136 3.2571 134.179 3.27301 134.224 3.28489C134.25 3.29372 134.275 3.30255 134.302 3.3107C134.298 3.35198 134.297 3.39347 134.298 3.43494C134.298 3.49809 134.298 3.56055 134.292 3.61623L134.451 3.63524C134.451 3.58092 134.457 3.52457 134.459 3.47297C134.458 3.4502 134.46 3.4274 134.464 3.40507V3.29847C134.464 3.23058 134.464 3.16676 134.469 3.09479V2.98276C134.469 2.91486 134.469 2.84697 134.474 2.77907V2.74173C134.474 2.71661 134.48 2.69216 134.48 2.67383V2.60594H134.677V2.78247C134.692 2.79944 134.707 2.81438 134.721 2.83271C134.722 2.83261 134.723 2.83266 134.723 2.83285C134.724 2.83305 134.725 2.83338 134.725 2.83383C134.726 2.83429 134.726 2.83485 134.726 2.83547C134.727 2.8361 134.727 2.83677 134.727 2.83746C134.799 2.91554 134.873 3.00177 134.945 3.08256C134.966 3.10836 134.988 3.13349 135.008 3.15589C135.014 3.15968 135.018 3.16481 135.022 3.17083C135.03 3.17992 135.037 3.18944 135.045 3.19935C135.098 3.26181 135.152 3.32631 135.199 3.39081C135.26 3.35422 135.317 3.31169 135.369 3.26385C135.417 3.22233 135.459 3.17538 135.495 3.12398C135.514 3.10002 135.531 3.07509 135.546 3.0493C135.567 3.01441 135.586 2.97837 135.603 2.94134C135.613 2.91554 135.626 2.8911 135.636 2.86598C135.643 2.85434 135.648 2.84176 135.652 2.82863C135.67 2.77749 135.691 2.7274 135.715 2.67859C135.747 2.59917 135.803 2.53188 135.876 2.48644C135.859 2.43721 135.831 2.39242 135.794 2.3554V2.352ZM133.078 9.34867L132.962 9.22442C132.936 9.19455 132.911 9.16603 132.887 9.14091C132.887 9.13412 132.877 9.12801 132.873 9.1219L132.144 9.73296L134.388 12.2376L134.476 12.1636L135.801 11.0434C135.367 10.9194 134.95 10.7429 134.559 10.5178C134.086 10.2461 133.65 9.91582 133.26 9.53471C133.25 9.52577 133.241 9.51574 133.234 9.50483C133.202 9.47632 133.173 9.44848 133.146 9.41793C133.122 9.39666 133.099 9.37399 133.078 9.35003L133.078 9.34867ZM131.481 10.2578L131.471 10.2666L132.134 10.7996L133.763 12.1161L133.888 11.9708L132.222 10.1044L132.175 10.0548C132.175 10.0548 132.163 10.05 132.168 10.0419L131.987 9.8382L131.48 10.2551L131.481 10.2578ZM131.417 11.152L131.441 11.1588L132.9 11.7169L133.015 11.761L131.676 10.6944L131.614 10.6468L131.417 11.152ZM121.263 20.9595C121.206 20.7138 121.147 20.4524 121.089 20.2493L120.637 18.681L120.004 16.4791C119.865 15.997 119.841 15.4895 119.932 14.9963C120.023 14.5031 120.227 14.0378 120.528 13.6368C120.829 13.2359 121.219 12.9102 121.668 12.6855C122.116 12.4607 122.61 12.343 123.112 12.3415C123.268 12.342 123.423 12.3531 123.577 12.3748C123.682 12.3644 123.786 12.3485 123.889 12.3273C123.939 12.3171 123.988 12.3023 124.036 12.2831C124.073 12.2716 124.111 12.258 124.146 12.2438C124.214 12.2179 124.282 12.1874 124.357 12.1534C124.477 12.0991 124.602 12.0455 124.722 11.9959C125.304 11.7371 125.918 11.5589 126.548 11.4663C127.33 11.3552 128.124 11.3678 128.901 11.5037C129.364 11.5857 129.817 11.7135 130.255 11.8853C130.421 11.944 130.591 11.9894 130.764 12.0211C131.046 12.0211 131.07 11.725 131.418 11.725C131.581 11.7623 131.739 11.8197 131.889 11.8961C131.889 11.8961 131.842 11.964 131.84 11.964C131.2 13.0052 130.723 14.1378 130.426 15.3228C130.419 15.3433 130.413 15.3641 130.409 15.3853L130.366 15.5598C130.366 15.5598 134.988 17.4222 135 17.431C135.032 17.3516 135.838 15.4057 135.838 15.4057C135.838 15.4057 136.688 15.9977 137.128 16.2598C137.109 16.6138 137.112 16.9686 137.136 17.3224C137.213 18.7013 137.461 20.7457 137.537 21.3805C137.605 21.4599 137.652 21.5373 137.76 21.5373C137.868 21.5373 139.065 21.411 139.393 20.969L139.19 17.9375L139.04 15.7159L137.458 11.943L137.212 11.3577L136.745 12.4766L134.83 17.0691L130.697 15.4328C130.697 15.4206 130.703 15.4097 130.703 15.3975C130.703 15.3952 130.703 15.3928 130.704 15.3907C130.706 15.3886 130.707 15.387 130.709 15.386C130.711 15.3685 130.715 15.3514 130.722 15.335C131.03 14.092 131.538 12.9072 132.226 11.8269C132.245 11.7746 132.258 11.7474 132.258 11.7427C132.258 11.651 132.264 11.668 132.236 11.6469L131.158 11.2396L131.441 10.5144L131.169 10.2951L131.242 10.2327L131.513 10.01L131.931 9.66439L132.437 9.24139L132.661 9.054L132.744 8.98611L132.644 8.84692C132.644 8.84692 132.48 8.62762 132.405 8.51355C132.235 8.26278 132.087 7.99844 131.961 7.72324C131.882 7.54807 131.813 7.37766 131.757 7.20656C131.73 7.14398 131.71 7.07833 131.698 7.01102C131.636 6.79278 131.59 6.57011 131.562 6.34496C131.544 6.21626 131.535 6.08652 131.534 5.9566V5.90432C131.538 5.65626 131.608 5.41377 131.738 5.20227C131.778 5.12956 131.828 5.06244 131.885 5.00266L131.914 4.97754C131.956 4.92946 132.002 4.88411 132.05 4.84175C132.146 4.76241 132.252 4.69599 132.365 4.64417C132.438 4.6016 132.515 4.56722 132.596 4.54165C132.597 4.54165 132.598 4.54114 132.599 4.54025C132.6 4.53936 132.6 4.53816 132.6 4.53689C132.606 4.47511 132.606 4.40789 132.611 4.32506C132.658 4.32981 132.705 4.33796 132.747 4.34611C132.871 4.36538 132.992 4.39606 133.11 4.43777C133.119 4.43937 133.128 4.44235 133.137 4.44659C133.099 4.20964 132.821 4.16347 132.729 4.03243C132.707 4.00721 132.694 3.97466 132.693 3.94077C132.694 3.90998 132.703 3.87991 132.719 3.85386C132.756 3.81308 132.778 3.76167 132.783 3.70721C132.784 3.68169 132.777 3.6565 132.764 3.63456C132.754 3.61167 132.738 3.59194 132.718 3.57752L132.712 3.57209C132.696 3.56133 132.68 3.5518 132.663 3.54358C132.642 3.5266 132.621 3.51031 132.601 3.49741C132.573 3.47229 132.547 3.44513 132.522 3.42069C132.287 3.1827 132.124 2.88305 132.052 2.55637C132.046 2.53057 132.045 2.50613 132.038 2.47693C132.031 2.44774 132.029 2.40904 132.027 2.37509C132.018 2.26474 132.02 2.15375 132.033 2.04376C132.039 2.01253 132.043 1.97586 132.049 1.94395C132.121 1.58447 132.313 1.25986 132.592 1.0226C132.67 0.957578 132.752 0.897702 132.838 0.84336C132.845 0.839463 132.851 0.834666 132.856 0.829102C132.958 0.767218 133.066 0.716239 133.178 0.677015C133.197 0.669354 133.217 0.663002 133.237 0.658004C133.249 0.65285 133.262 0.649643 133.275 0.648498C133.38 0.615367 133.487 0.590174 133.595 0.573134C133.69 0.558663 133.787 0.550272 133.883 0.548012C133.946 0.548012 134.011 0.548012 134.07 0.552765C134.096 0.552765 134.125 0.559555 134.148 0.561592L134.211 0.567703H134.366C134.423 0.567703 134.484 0.563629 134.552 0.563629C134.568 0.586034 134.584 0.606403 134.598 0.631525L134.614 0.655288C134.667 0.746948 134.709 0.832496 134.738 0.88885C134.744 0.897676 134.746 0.902429 134.752 0.905823C134.766 0.928874 134.783 0.949891 134.803 0.968288C134.967 1.12038 135.241 1.16383 135.302 1.29962C135.363 1.43541 135.595 1.90593 135.595 1.90593C135.595 1.90593 136.087 2.46064 136.087 2.48508C136.087 2.58964 136.081 2.63785 136.155 2.71389C136.254 2.68631 136.352 2.65368 136.448 2.61612C136.453 2.53878 136.461 2.46173 136.474 2.38527C136.483 2.36626 136.826 1.91611 137.006 1.93037C137.052 1.93037 137.66 1.88081 137.663 1.88081C138.203 1.45558 138.577 0.855272 138.722 0.183412V0.167117C138.726 0.156469 138.729 0.145281 138.731 0.133848C138.74 0.107919 138.755 0.0846172 138.775 0.0659522C138.81 0.038468 138.851 0.0198925 138.895 0.0118453C138.938 0.00379819 138.983 0.00652307 139.025 0.0197825C139.118 0.0412611 139.207 0.0755386 139.29 0.121626C139.438 0.206793 139.575 0.310364 139.697 0.429873C139.738 0.469932 139.773 0.505238 139.806 0.544618C139.883 0.630716 139.951 0.724185 140.01 0.823669C140.06 0.888304 140.095 0.963587 140.111 1.04374C140.128 1.12389 140.126 1.20678 140.106 1.28604L140.091 1.30709C139.661 1.98182 139.012 2.48887 138.254 2.74376C138.233 2.75289 138.213 2.76403 138.194 2.77703C138.344 2.92176 138.455 3.10269 138.516 3.30255H139.319V5.611C139.319 5.64699 139.314 5.6789 139.312 5.71149C139.31 5.74408 139.304 5.77939 139.296 5.81673C139.29 5.83778 139.287 5.8595 139.281 5.88462C139.252 5.98671 139.21 6.08431 139.154 6.17454C139.142 6.19423 139.128 6.21053 139.116 6.2309C139.029 6.34924 138.919 6.44921 138.794 6.52507C138.668 6.60093 138.528 6.65117 138.383 6.6729C138.33 6.68172 138.275 6.68512 138.219 6.68919H137.104L138.916 8.72607C138.916 8.72607 138.376 9.16807 138.191 9.34256C138.272 9.45988 138.366 9.56822 138.47 9.66574C138.594 9.73907 139.362 9.80154 139.302 10.1695C139.297 10.2121 139.287 10.2539 139.272 10.2945C139.185 10.473 139.078 10.6415 138.954 10.7969C138.828 10.9592 138.566 10.9734 138.479 11.243C138.611 11.331 138.711 11.4594 138.764 11.6089C139.203 11.0981 139.592 10.5455 139.924 9.95906C140.854 10.1947 143.096 11.4446 143.686 11.6279C144.105 11.7408 144.531 11.8227 144.962 11.873C144.905 12.0115 144.865 12.1566 144.843 12.3049C144.849 12.3592 145.027 12.4108 145.232 12.5343C145.342 12.5986 145.442 12.6779 145.53 12.7699C145.487 13.2846 145.561 13.8022 145.747 14.284C145.817 14.449 145.876 14.6182 145.924 14.7905C145.942 14.8448 145.954 14.8992 145.969 14.9575C145.998 15.0845 146.023 15.2156 146.044 15.3507C146.07 15.5218 146.087 15.6949 146.095 15.8701C146.095 15.9156 146.101 15.961 146.101 16.0059V16.2014C146.102 16.2427 146.1 16.2839 146.095 16.325C146.085 16.5407 146.063 16.7556 146.027 16.9686C146.017 17.0141 146.01 17.0603 145.998 17.1098C145.986 17.1723 145.972 17.2456 145.955 17.304C145.899 17.5401 145.823 17.771 145.728 17.9945C145.716 18.0164 145.705 18.0391 145.696 18.0624C145.69 18.0794 145.684 18.0916 145.68 18.1052C145.675 18.1114 145.672 18.1183 145.67 18.1256C145.647 18.1215 145.625 18.1113 145.602 18.1052C145.461 18.0578 145.326 17.9956 145.198 17.9198C145.116 17.8676 145.034 17.8132 144.957 17.7528C144.876 17.6883 144.799 17.618 144.729 17.5423C144.863 17.8299 145.063 18.0817 145.313 18.2777C145.355 18.3089 145.401 18.3456 145.449 18.3761C145.483 18.3928 145.518 18.4066 145.554 18.4175C145.559 18.4175 146.168 18.6131 146.291 18.6382C146.951 18.7425 147.604 18.8893 148.246 19.0775C148.351 19.1128 148.544 18.8738 149.128 18.9206C149.385 18.9506 149.624 19.066 149.808 19.2482C149.991 19.4304 150.108 19.6689 150.14 19.9255C150.128 20.3125 149.963 20.4062 149.908 20.6296C149.84 20.9154 149.393 23.3631 149.344 23.7908C149.312 24.0624 149.304 24.4507 149.304 24.4555C149.304 24.4949 149.412 24.9552 149.422 25.1114C149.422 25.1426 149.427 25.1637 149.427 25.1949C149.427 25.2654 149.421 25.3358 149.409 25.4054C149.392 25.5508 149.346 25.6912 149.273 25.818C149.2 25.9449 149.101 26.0556 148.984 26.1434C148.979 26.1576 148.976 26.1726 148.97 26.1868C148.937 26.3057 148.897 26.4245 148.856 26.5433C148.637 27.1423 148.293 27.6881 147.848 28.145L147.836 28.1246L146.948 26.4272L146.937 26.4082C147.128 26.0535 147.371 25.7297 147.658 25.4481C147.695 25.4079 147.734 25.3696 147.774 25.3334C147.864 25.2506 147.958 25.1711 148.051 25.0937C148.051 25.0679 148.046 25.0401 148.046 25.0156C148.046 24.8535 148.08 24.6931 148.144 24.5442C148.208 24.3953 148.302 24.261 148.419 24.1493C148.454 24.1149 148.49 24.0827 148.529 24.0529C148.529 23.985 148.664 21.4219 148.556 20.4754C148.199 20.4204 147.857 20.2928 147.551 20.1007C147.463 20.0328 144.641 20.3043 144.555 20.3132C144.469 20.322 144.233 20.2073 144.069 20.21C143.904 20.2127 143.64 20.248 143.541 20.248C143.354 20.2478 143.172 20.1886 143.021 20.0789C142.862 19.9632 142.749 19.7948 142.703 19.6037C142.69 19.5613 142.682 19.5175 142.679 19.4733V19.3762C142.68 19.3458 142.683 19.3154 142.688 19.2852L142.704 19.1929C142.725 19.1168 142.756 19.0439 142.796 18.9763C142.64 18.9306 142.489 18.8709 142.343 18.7977C142.206 18.7278 142.075 18.6482 141.949 18.5594C141.643 18.3425 141.382 18.0684 141.181 17.7521C141.112 17.6433 141.051 17.5299 140.998 17.4127C141.172 18.1282 141.617 18.7482 142.24 19.142C142.231 19.201 142.225 19.2608 142.222 19.3233C142.218 19.4359 142.228 19.5486 142.252 19.6587C142.303 19.8959 142.416 20.1154 142.58 20.2942C142.77 20.5041 143.018 20.6528 143.293 20.7212C143.068 21.5516 142.574 22.9754 142.574 23.0772C142.367 23.7189 142.104 24.3416 141.79 24.9382C141.746 25.558 141.655 26.1735 141.518 26.7796C141.497 26.9125 141.486 27.0469 141.485 27.1815C141.485 27.2881 141.427 27.9447 141.389 29.0025C141.389 29.0928 141.354 29.107 141.354 29.213C141.359 29.3013 141.389 29.3864 141.44 29.4587C141.44 29.4628 141.449 29.4689 141.452 29.475C141.489 29.5253 141.527 29.5735 141.563 29.6231C141.612 29.691 141.661 29.7588 141.708 29.8267C141.817 29.9898 141.915 30.1597 142.003 30.3353C142.047 30.4235 142.087 30.5111 142.125 30.598C142.148 30.6356 142.166 30.6754 142.18 30.7169C142.335 31.0984 142.44 31.4981 142.493 31.9064H140.407C140.431 31.7854 140.446 31.6629 140.452 31.5398C140.466 31.0636 140.358 30.5918 140.138 30.1689C140.059 29.9545 139.944 29.7551 139.799 29.5789C139.829 29.274 139.884 28.9721 139.965 28.6766C140.091 28.331 140.25 27.9983 140.44 27.6833C140.44 27.6833 140.572 25.1711 140.572 25.0652C140.572 24.9593 140.393 24.0522 140.319 23.5891C140.255 23.104 140.118 22.6313 139.912 22.1871C139.864 22.0954 140.137 21.8388 140.22 21.6847L140.169 21.6351C140.156 21.6355 140.144 21.6371 140.132 21.6399C140.023 21.7349 138.009 22.3412 138.009 22.3412C137.824 22.0934 137.616 21.8646 137.386 21.6582C136.5 21.5918 135.618 21.4785 134.745 21.3187C133.492 21.0922 132.261 20.7634 131.063 20.3356C130.859 20.2609 130.659 20.1815 130.469 20.1068C130.46 20.1158 130.453 20.1264 130.448 20.138V20.2439C130.447 20.382 130.437 20.5199 130.418 20.6567C130.367 21.1813 130.226 21.6933 130.003 22.1708C129.907 22.3753 129.79 22.5689 129.653 22.7479L129.628 22.7982C129.721 22.9843 129.789 23.1817 129.832 23.3855C129.861 23.514 129.881 23.6445 129.891 23.7759C129.902 23.9375 129.902 24.0997 129.891 24.2613C130.753 25.2996 131.541 26.3968 132.249 27.5448C132.255 27.5528 132.26 27.5612 132.265 27.5699C132.423 27.6674 132.552 27.8053 132.639 27.9694C132.726 28.1335 132.768 28.3179 132.76 28.5035C132.758 28.6194 132.743 28.7348 132.713 28.847C132.678 28.9722 132.621 29.0902 132.544 29.1953C132.575 29.3168 132.6 29.4329 132.619 29.5586C132.662 29.8229 132.678 30.0909 132.666 30.3584V30.3835C132.649 30.7806 132.57 31.1727 132.433 31.5459C132.401 31.6198 132.364 31.6915 132.323 31.7604L130.733 30.465L130.694 30.4358C130.766 30.2449 130.851 30.0592 130.948 29.8797C131.051 29.6901 131.165 29.5063 131.288 29.3291C131.099 29.1422 130.98 28.8969 130.948 28.6331C130.943 28.5867 130.941 28.54 130.942 28.4933C130.942 28.4539 130.947 28.4084 130.948 28.3663C130.959 28.0875 131.048 27.8172 131.204 27.5862C131.01 27.2467 130.544 26.5793 130.396 26.3926C130.117 26.0421 129.81 25.7146 129.479 25.4135C129.253 25.3003 129.013 25.2162 128.766 25.163C128.805 25.1677 128.747 25.1589 128.766 25.163C128.648 25.1501 128.277 25.0896 128.277 25.0896L127.718 24.9926L127.683 24.9878L127.818 24.5499C127.818 24.5424 127.824 24.5336 127.824 24.5214C127.843 24.3588 127.843 24.1944 127.824 24.0318C127.81 23.9169 127.783 23.8041 127.742 23.6957C127.728 23.6584 127.71 23.6278 127.696 23.5891C127.674 23.5469 127.649 23.5058 127.623 23.4663C127.614 23.4573 127.607 23.4475 127.6 23.4371C127.403 23.177 126.95 22.5972 126.873 22.5082C126.889 22.492 126.904 22.4702 126.917 22.456L126.94 22.4295C127.24 22.0568 127.496 21.6506 127.702 21.2189C127.802 21.0071 127.89 20.79 127.966 20.5685C128.063 20.2887 128.14 20.0024 128.196 19.7116C128.224 19.5758 128.248 19.44 128.269 19.2988C128.269 19.2859 128.27 19.273 128.275 19.2608C128.368 19.1983 128.46 19.1297 128.546 19.0571C128.796 18.8588 129.017 18.6277 129.204 18.37C129.323 18.2106 129.427 18.0411 129.515 17.8635L129.569 17.7515C129.548 17.7841 129.526 17.8194 129.501 17.8513C129.197 18.2799 128.805 18.6381 128.351 18.9016L128.304 18.9254C128.265 18.9503 128.226 18.973 128.184 18.9933C128.094 19.0411 128.002 19.0835 127.907 19.1202C127.889 19.252 127.865 19.3789 127.839 19.5039C127.799 19.6899 127.751 19.8664 127.698 20.0436C127.651 20.1984 127.596 20.3505 127.538 20.4979C127.445 20.7417 127.335 20.9789 127.21 21.208C127.07 21.4702 126.909 21.7211 126.73 21.9583C126.683 22.0167 126.643 22.073 126.598 22.1246C126.247 22.5578 125.831 22.9345 125.365 23.2415C125.116 23.405 124.851 23.5446 124.576 23.6584C124.495 23.691 124.418 23.7263 124.338 23.7501C124.193 24.0752 123.971 24.3605 123.692 24.5818C123.543 24.6844 123.409 24.8068 123.293 24.9457C123.1 25.2599 122.954 25.601 122.86 25.958C122.7 26.5408 122.573 27.1322 122.48 27.7294C122.48 27.8292 122.438 28.2577 122.438 28.3622C122.438 28.4668 122.741 29.4811 122.741 29.5918C122.74 29.5971 122.741 29.6023 122.743 29.6073C122.745 29.6122 122.748 29.6166 122.751 29.6203C123.21 29.9659 123.569 30.4257 123.794 30.9538C123.93 31.2559 124.021 31.576 124.065 31.9044H122.292C122.248 31.6202 122.176 31.3412 122.077 31.0713C121.911 30.6156 121.668 30.1918 121.359 29.8186C121.292 29.7358 121.22 29.6571 121.144 29.583C121.115 29.5313 121.099 29.4731 121.099 29.4139C121.094 29.4037 121.092 29.3925 121.093 29.3813C121.137 29.016 121.23 28.6584 121.372 28.3188C121.427 28.2146 121.466 28.102 121.484 27.9854C121.484 27.8815 121.662 25.7897 121.649 25.7129C121.474 25.18 121.245 24.6667 120.964 24.1812C121.066 24.0483 121.18 23.9243 121.303 23.8105C121.575 23.6053 121.773 23.3182 121.869 22.9917C121.888 22.9 121.965 22.8919 121.965 22.788C121.968 22.7533 121.961 22.7184 121.943 22.6882C121.542 22.9872 121.055 23.1478 120.554 23.1458C120.857 22.8978 121.085 22.5715 121.215 22.2025C121.345 21.8336 121.371 21.436 121.291 21.0532C121.285 21.0193 121.279 20.9853 121.27 20.9568" fill="#78909E"/>
<path d="M0.768066 31.6428V6.17236H13.7851V10.4763H5.5201V16.3309H11.8215V20.6349H5.5201V27.3375H14.1293V31.6415L0.768066 31.6428Z" fill="#78909E"/>
<path d="M26.4231 13.2634C26.1617 12.2952 25.6782 11.4014 25.0109 10.6528C24.7392 10.3847 24.4161 10.1743 24.0611 10.0343C23.706 9.89431 23.3263 9.82755 22.9448 9.83805C22.5862 9.81388 22.2267 9.86757 21.8908 9.99543C21.5549 10.1233 21.2507 10.3223 20.9989 10.5788C20.5239 11.1512 20.2839 11.8826 20.3274 12.6252C20.33 12.9452 20.4021 13.2608 20.5388 13.5501C20.6755 13.8395 20.8735 14.0956 21.1191 14.3008C21.7204 14.8357 22.3786 15.3029 23.082 15.6941C23.8623 16.1413 24.7117 16.6165 25.6301 17.1199C26.5408 17.6207 27.3951 18.218 28.1782 18.9015C28.9671 19.5944 29.631 20.4177 30.1411 21.3355C30.6933 22.377 30.966 23.5438 30.9328 24.7222C30.9497 25.7494 30.7697 26.7704 30.4025 27.73C30.0626 28.5998 29.5333 29.383 28.8531 30.0228C28.1342 30.6824 27.2832 31.1814 26.3566 31.4866C25.2792 31.8415 24.1503 32.0143 23.0161 31.9979C21.1884 32.0397 19.4037 31.4406 17.9714 30.3046C16.5597 29.1757 15.5324 27.3529 14.8896 24.8362L19.5745 23.813C19.6814 24.4911 19.8844 25.1504 20.1774 25.7712C20.4048 26.2507 20.7135 26.6871 21.0899 27.0612C21.3999 27.3682 21.7696 27.6084 22.1762 27.7666C22.5227 27.9018 22.8907 27.9735 23.2626 27.9785C23.8424 27.9551 24.4035 27.7669 24.88 27.4358C25.3566 27.1047 25.7288 26.6446 25.953 26.1094C26.1772 25.5742 26.244 24.9861 26.1457 24.4143C26.0474 23.8424 25.788 23.3104 25.3979 22.8808C24.8171 22.2617 24.1571 21.7221 23.435 21.2758C22.6542 20.782 21.8048 20.294 20.8869 19.8119C19.9865 19.3419 19.1332 18.7867 18.3388 18.1539C17.5692 17.5428 16.906 16.8087 16.3759 15.9813C15.8233 15.068 15.5483 14.0138 15.5842 12.947C15.5314 11.9954 15.6703 11.0428 15.9926 10.1459C16.315 9.24903 16.8143 8.42603 17.4609 7.72581C18.7115 6.4557 20.5768 5.82065 23.0568 5.82065C24.029 5.80704 24.9961 5.9621 25.9153 6.27895C26.735 6.56772 27.4945 7.00503 28.1558 7.56897C28.7994 8.12322 29.3412 8.78566 29.7568 9.5264C30.1894 10.2998 30.5084 11.1315 30.7039 11.9958L26.4231 13.2634Z" fill="#78909E"/>
<path d="M47.4662 6.17236V10.4763H41.9192V31.6428H37.1664V10.4763H31.6221V6.17236H47.4662Z" fill="#78909E"/>
<path d="M44.3638 31.6428L50.5274 6.17236H56.6224L62.6142 31.6428H58.0692L56.8641 26.279H50.287L48.944 31.6428H44.3638ZM51.1473 21.9765H55.8647L53.5562 11.6753H53.4883L51.1473 21.9765Z" fill="#78909E"/>
<path d="M63.613 6.17231H70.2247C71.4468 6.15396 72.665 6.31407 73.8408 6.64759C74.8461 6.93677 75.7671 7.46352 76.5261 8.18339C77.2988 8.95004 77.8823 9.88617 78.2303 10.9176C78.6654 12.2321 78.892 13.6067 78.9018 14.9913V22.8238C78.8921 24.2084 78.6655 25.583 78.2303 26.8975C77.8825 27.929 77.299 28.8652 76.5261 29.6317C75.7668 30.3511 74.8455 30.8774 73.8401 31.1661C72.6643 31.4995 71.4461 31.6596 70.224 31.6414H63.6123L63.613 6.17231ZM68.3657 27.3388H70.019C70.5761 27.3728 71.1342 27.2917 71.6586 27.1005C72.183 26.9092 72.6623 26.612 73.0668 26.2274C73.791 25.4864 74.1531 24.1636 74.1531 22.2589V15.5562C74.1531 13.7456 73.8374 12.4461 73.206 11.6576C72.5746 10.8691 71.5129 10.4751 70.021 10.4756H68.3677L68.3657 27.3388Z" fill="#78909E"/>
<path d="M78.834 31.6442L84.9983 6.17377H91.0933L97.0851 31.6442H92.5394L91.3343 26.2804H84.7572L83.4142 31.6442H78.834ZM94.2613 0C94.1518 0.545297 94.0023 1.08177 93.8138 1.60506C93.6418 2.08793 93.4042 2.54485 93.1077 2.96298C92.8236 3.35921 92.4518 3.68451 92.0214 3.91352C91.5311 4.16148 90.9866 4.28285 90.4374 4.26657C89.9778 4.26623 89.5207 4.20085 89.0795 4.07239C88.6318 3.94339 88.2018 3.8024 87.7894 3.6494C87.3771 3.49641 86.9697 3.35541 86.5673 3.22641C86.1838 3.10015 85.7829 3.03463 85.3791 3.03223C85.1849 3.02319 84.9911 3.05819 84.8123 3.13462C84.6334 3.21104 84.4742 3.32691 84.3464 3.47355C84.091 3.77257 83.9135 4.13014 83.8298 4.5144H81.6571C81.7458 3.96043 81.89 3.4168 82.0875 2.89169C82.2709 2.39482 82.5324 1.93045 82.8622 1.51611C83.1769 1.12266 83.57 0.798963 84.0165 0.565573C84.5134 0.319406 85.0631 0.198437 85.6175 0.213194C86.0783 0.213788 86.5363 0.285233 86.9754 0.425028C87.423 0.566251 87.853 0.713133 88.2654 0.865672C88.6777 1.01821 89.0681 1.16532 89.4366 1.307C89.7426 1.43519 90.0692 1.50695 90.4007 1.51883C90.5969 1.52229 90.7916 1.48483 90.9724 1.40885C91.1532 1.33286 91.3163 1.22001 91.4511 1.07751C91.7395 0.780798 91.9368 0.40753 92.0193 0.00203705L94.2613 0ZM85.6181 21.9779H90.3355L88.0271 11.6767H87.9592L85.6181 21.9779Z" fill="#78909E"/>
<path d="M97.1571 14.3544C97.1228 13.0017 97.321 11.6532 97.7431 10.3676C98.0748 9.37951 98.6282 8.48047 99.361 7.73933C100.061 7.06279 100.91 6.56121 101.841 6.2755C103.908 5.66403 106.109 5.66403 108.177 6.2755C109.107 6.56119 109.957 7.06277 110.656 7.73933C111.389 8.48068 111.942 9.37965 112.274 10.3676C112.696 11.6533 112.894 13.0018 112.859 14.3544V23.4586C112.894 24.811 112.696 26.1593 112.274 27.4447C111.942 28.4327 111.389 29.3318 110.656 30.073C109.957 30.7497 109.107 31.2513 108.177 31.5368C106.109 32.1483 103.908 32.1483 101.841 31.5368C100.91 31.2513 100.061 30.7497 99.361 30.073C98.6281 29.3319 98.0746 28.4329 97.7431 27.4447C97.321 26.1594 97.1228 24.8111 97.1571 23.4586V14.3544ZM101.91 24.0914C101.91 25.5027 102.185 26.4553 102.736 26.9491C103.396 27.4305 104.192 27.6899 105.009 27.6899C105.826 27.6899 106.622 27.4305 107.282 26.9491C107.833 26.4553 108.108 25.5027 108.108 24.0914V13.7223C108.108 12.311 107.833 11.3586 107.282 10.8653C106.622 10.3837 105.826 10.1242 105.009 10.1242C104.192 10.1242 103.396 10.3837 102.736 10.8653C102.185 11.3591 101.91 12.3114 101.91 13.7223V24.0914Z" fill="#78909E"/>
</svg>
