<svg width="236" height="26" viewBox="0 0 236 26" fill="none" xmlns="http://www.w3.org/2000/svg">
<path d="M17.8467 14.2077C17.8467 22.0934 20.5992 25.7384 26.4388 25.7384C31.5345 25.7384 35.4774 22.4652 35.4774 14.4681C35.4774 6.54541 32.6877 2.97467 26.8479 2.97467C21.7522 2.97467 17.8462 6.17351 17.8462 14.2077H17.8467ZM30.1213 14.5052C30.1213 23.2091 28.3359 24.4367 26.5133 24.4367C24.7279 24.4367 23.1656 23.0233 23.1656 14.1336C23.1656 5.46715 24.951 4.27643 26.7365 4.27643C28.559 4.27643 30.1213 5.61548 30.1213 14.5052H30.1213ZM36.5189 25.3292H49.6864V18.6711H48.6449L46.8224 23.8411H43.4747V4.83415L45.4089 4.3878V3.38353H36.6677V4.3878L38.4531 4.83415V23.8785L36.5189 24.3249V25.3291L36.5189 25.3292ZM51.4344 3.38353V4.3878L53.2198 4.87133V23.8783L51.4344 24.3246V25.3289H59.8409V24.3246L58.2415 23.8783V15.2488H63.0768V23.8783L61.5889 24.3246V25.3289H69.8837V24.3246L68.0983 23.8783V4.83392L69.7349 4.38757V3.3833H61.5888V4.38757L63.0766 4.83392V13.7608H58.2413V4.83392L59.8408 4.38757V3.3833H51.4342L51.4344 3.38353ZM71.2969 25.3292H76.9134V24.3249L74.6444 23.8785L75.8719 18.6337H80.5585L82.3067 23.8785L80.3353 24.3249V25.3292H89.1878V24.3249L87.5512 23.8785L81.3396 3.34661H78.2151L72.896 23.8785L71.2965 24.3249V25.3292H71.2969ZM76.2813 17.1087L77.9923 10.1903L80.1125 17.1087H76.2813V17.1087ZM111.06 14.691C111.06 6.06146 107.786 3.38319 102.356 3.38319H93.875V4.38746L95.6232 4.83381V23.8782L93.875 24.3245V25.3288H102.728C107.079 25.3288 111.059 22.4647 111.059 14.6909L111.06 14.691ZM102.282 23.8413H100.868V4.87124H102.133C104.625 4.87124 106.001 6.32186 106.001 14.468C106.001 22.4649 104.811 23.8413 102.282 23.8413H102.282ZM0.886438 0.333252V1.48633L3.15538 1.96991V23.6926L0.812012 24.1761V25.3292H11.6733V24.1761L8.69763 23.6926V13.6498H11.8965L12.6776 16.9602H13.8679V8.88893H12.6776L11.8965 11.939H8.69763V2.00755H12.7892L14.8722 7.69836H16.1368V0.333452H0.88667L0.886438 0.333252Z" fill="#78909E"/>
<path d="M121.827 23.8427H117.773V15.1015H120.488L121.158 18.04H122.199V10.9355H121.158L120.488 13.6136H117.773V4.94714H121.158L122.943 9.78242H124.096V3.45908H110.743V4.4262L112.751 4.87255V23.8795L110.706 24.3259V25.3301H124.765V18.9325H123.65L121.827 23.8421L121.827 23.8427ZM140.425 0C135.962 0 132.428 2.86405 132.391 7.36491C132.354 14.7668 141.801 14.8411 141.801 20.7554C141.801 22.3548 140.574 23.8055 138.64 23.8055C137.338 23.8055 135.925 23.6195 134.883 22.9872L133.767 18.1519H132.465V24.9217C133.767 25.4424 135.701 25.74 137.896 25.74C142.991 25.74 146.413 22.0204 146.413 17.5195C146.413 9.48515 137.151 10.0059 137.151 4.53811C137.151 3.05026 138.305 1.89717 140.425 1.89717C141.355 1.89717 141.987 2.00871 142.917 2.19475L144.144 7.17918H145.335V0.409401C143.809 0.111821 142.136 0.000228269 140.425 0.000228269L140.425 0ZM161.515 13.4648H160.585V2.0827H161.59C163.487 2.0827 164.193 3.12418 164.193 7.73659C164.193 12.3489 163.226 13.4648 161.515 13.4648H161.515ZM162.892 15.1758C167.876 15.1758 170.033 12.2373 170.033 7.77397C170.033 2.00881 167.281 0.372136 163.189 0.372136H152.774V1.52521L155.043 2.00874V23.694L152.7 24.1775V25.3306H163.412V24.1775L160.585 23.694V15.1762H162.892V15.1758ZM173.641 17.1472L175.352 10.1918L177.472 17.1472H173.641H173.641ZM168.434 25.3303H174.274V24.326L172.042 23.8796L173.269 18.6348H177.919L179.63 23.8796L177.659 24.326V25.3303H186.735V24.326L184.875 23.8796L178.7 3.38463H175.576L170.22 23.8796L168.434 24.326V25.3303H168.434ZM185.804 3.45894V4.42606L187.589 4.87241V19.0067C187.589 24.0654 189.226 25.9994 194.099 25.9994C198.488 26.0366 200.571 24.214 200.571 19.9739V4.87241L202.245 4.42606V3.45894H197.186V4.42606L199.046 4.87241V19.6766C199.046 22.7638 198.19 24.4375 195.326 24.4375C193.28 24.4375 192.611 23.1357 192.611 20.346V4.87235L194.545 4.426V3.45891H185.804L185.804 3.45894ZM203.881 25.3303H216.825V18.6722H215.784L213.998 23.8422H210.799V4.87218L212.734 4.42586V3.45874H203.992V4.42586L205.815 4.87218V23.8792L203.881 24.3255V25.3298L203.881 25.3303ZM218.35 14.2085C218.35 22.0943 221.103 25.7393 226.942 25.7393C232.001 25.7393 235.906 22.4661 235.906 14.4689C235.906 6.58322 233.117 3.0125 227.277 3.0125C222.218 3.0125 218.35 6.21132 218.35 14.2085ZM230.588 14.5433C230.588 23.2098 228.765 24.4374 226.98 24.4374C225.194 24.4374 223.669 23.024 223.669 14.1712C223.669 5.50475 225.455 4.31403 227.24 4.31403C229.026 4.31403 230.588 5.65308 230.588 14.5428L230.588 14.5433ZM148.201 21.2388C149.391 21.2388 150.358 22.3175 150.358 23.6193C150.358 24.9211 149.317 25.9998 148.127 25.9998C147.011 25.9998 145.969 24.9211 145.969 23.6193C145.969 22.3175 147.085 21.2388 148.201 21.2388H148.201Z" fill="#78909E"/>
</svg>
