<svg width="110" height="28" viewBox="0 0 110 28" fill="none" xmlns="http://www.w3.org/2000/svg">
<path d="M61.9039 9.12676C61.9039 5.85916 61.959 2.8169 62.1244 0L53.6905 1.6338V2.42253L54.5173 2.53521C55.1237 2.59155 55.5095 2.81691 55.73 3.15493C55.9505 3.5493 56.1159 4.11268 56.2262 4.95775C56.3364 6.59155 56.4466 10.3099 56.3915 16.169C56.3915 21.9718 56.3364 25.6338 56.2262 27.0423C59.258 27.7183 61.6283 28 63.3922 28C66.6996 28 69.2905 27.0423 71.1647 25.0704C73.0389 23.1549 74.0311 20.4507 74.0311 17.1268C74.0311 14.4789 73.3145 12.2817 71.8813 10.5352C70.4481 8.78874 68.629 7.94366 66.4791 7.94366C65.0459 7.94366 63.5576 8.33803 61.9039 9.12676ZM62.0693 26.4789C61.959 24.6761 61.8488 19.2676 61.8488 10.4225C62.3449 10.2535 63.0064 10.1408 63.8332 10.1408C65.1562 10.1408 66.2035 10.8169 66.9753 12.2254C67.747 13.6338 68.1329 15.3239 68.1329 17.4648C68.1329 20.1127 67.6919 22.2535 66.8099 24.0563C65.9279 25.8028 64.8254 26.7042 63.4473 26.7042C63.0064 26.5916 62.5654 26.5352 62.0693 26.4789ZM22.0495 0.56338H0V1.69014L1.1576 1.80282C2.03958 1.97183 2.64594 2.30986 3.0318 2.8169C3.41767 3.38028 3.63816 4.28169 3.69329 5.52113C4.13428 11.6056 4.13428 17.2958 3.69329 22.5352C3.58304 23.7746 3.36254 24.6761 3.0318 25.2394C2.64594 25.8028 2.03958 26.1408 1.1576 26.2535L0 26.4225V27.5493H14.2219V26.4225L12.7336 26.3099C11.8516 26.1972 11.2452 25.8028 10.8594 25.2958C10.4735 24.7324 10.253 23.831 10.1979 22.5915C10.0325 20.338 9.92226 17.7465 9.92226 14.8732L12.8989 14.9296C14.4975 14.9859 15.6 16.2254 16.1512 18.7042H17.2537V9.52113H16.1512C15.6 11.9437 14.5527 13.1831 12.8989 13.2394L9.92226 13.2958C9.92226 8.22535 10.0325 4.61972 10.1979 2.42253H14.5527C17.6396 2.42253 19.7343 4.4507 20.947 8.50704L22.27 8.11268L22.0495 0.56338ZM19.4587 17.9155C19.4587 20.8451 20.2855 23.2676 21.8841 25.1831C23.4827 27.0986 25.853 28 28.8297 28C31.8064 28 34.2318 27.0423 35.9958 25.0704C37.7597 23.1549 38.5866 20.7324 38.5866 17.8028C38.5866 14.8732 37.7597 12.4507 36.1611 10.5352C34.5625 8.61972 32.1922 7.71831 29.2155 7.71831C26.2389 7.71831 23.8134 8.67606 22.0495 10.6479C20.2855 12.5634 19.4587 14.9859 19.4587 17.9155ZM31.7512 11.493C32.4127 13.1268 32.6883 15.2676 32.6883 17.8592C32.6883 23.831 31.4756 26.7606 29.1053 26.7606C27.8926 26.7606 26.9555 25.9155 26.294 24.2254C25.6325 22.5352 25.3569 20.3944 25.3569 17.8592C25.3569 11.9437 26.5696 9.01408 28.9399 9.01408C30.1527 8.95775 31.0898 9.80281 31.7512 11.493ZM78.3307 25.1831C80.1498 27.0423 82.465 28 85.2212 28C86.93 28 88.4184 27.662 89.7413 26.9296C91.0643 26.2535 92.1117 25.4085 92.8283 24.3944L92.277 23.7183C91.0643 24.6761 89.6862 25.1268 88.0876 25.1268C85.8827 25.1268 84.1739 24.3944 83.0163 22.8732C81.8035 21.3521 81.2523 19.4366 81.3625 16.9578H93.159C93.159 14.2535 92.4975 12.0563 91.1194 10.3099C89.7413 8.61972 87.812 7.77465 85.3315 7.77465C82.2445 7.77465 79.8742 8.78874 78.1654 10.7606C76.4565 12.7324 75.6297 15.1549 75.6297 18.0282C75.6297 20.9578 76.5117 23.3239 78.3307 25.1831ZM82.4099 11.0423C83.0163 9.69014 83.788 9.01408 84.8353 9.01408C86.489 9.01408 87.3159 11.1549 87.3159 15.493L81.4728 15.6056C81.5279 13.9155 81.8035 12.3944 82.4099 11.0423ZM107.987 8.78874C106.499 8.11268 104.625 7.71831 102.365 7.71831C100.049 7.71831 98.2304 8.33803 96.8523 9.52113C95.4742 10.7042 94.7576 12.169 94.7576 13.9155C94.7576 15.4366 95.1986 16.6197 96.0254 17.4648C96.8523 18.3099 98.1753 19.0423 99.8841 19.662C101.428 20.2254 102.53 20.7887 103.081 21.2958C103.632 21.8592 103.963 22.4789 103.963 23.3239C103.963 24.1127 103.688 24.8451 103.081 25.4085C102.53 26.0282 101.758 26.3099 100.766 26.3099C98.3406 26.3099 96.5216 24.507 95.2537 20.9014L94.3166 21.1831L94.5371 26.8169C96.5216 27.6056 98.7265 28 101.152 28C103.688 28 105.617 27.4366 107.05 26.2535C108.483 25.1268 109.2 23.493 109.2 21.4648C109.2 20.1127 108.869 18.9859 108.153 18.1408C107.436 17.2958 106.278 16.5634 104.625 15.8873C102.806 15.2113 101.538 14.5915 100.876 14.0282C100.215 13.4648 99.8841 12.7887 99.8841 11.9437C99.8841 11.0986 100.105 10.4225 100.601 9.85915C101.097 9.29577 101.703 9.07042 102.475 9.07042C104.68 9.07042 106.278 10.7042 107.271 13.9155L108.208 13.6338L107.987 8.78874ZM54.9583 8.28169C54.1866 7.88733 53.3597 7.71831 52.4226 7.71831C51.4855 7.71831 50.5484 8.11268 49.5011 8.90141C48.4537 9.69014 47.682 10.7606 47.0756 12.2254L47.1307 7.71831L38.7519 9.40845V10.1972L39.5788 10.2535C40.6261 10.3662 41.2325 11.2113 41.3428 12.7324C41.6735 16.2253 41.6735 19.9437 41.3428 23.8873C41.2325 25.4085 40.6261 26.1972 39.5788 26.3662L38.7519 26.4789V27.5493H50.4382V26.4789L48.9498 26.3662C47.9025 26.2535 47.2961 25.4085 47.1859 23.8873C46.8551 20.6197 46.8 17.1268 47.0756 13.5211C47.4064 12.9577 48.123 12.6197 49.2254 12.507C50.3279 12.3944 51.5958 12.7324 52.9187 13.5211L54.9583 8.28169Z" fill="#78909E"/>
</svg>
