<svg width="108" height="48" viewBox="0 0 108 48" fill="none" xmlns="http://www.w3.org/2000/svg">
<mask id="mask0_1255_5932" style="mask-type:alpha" maskUnits="userSpaceOnUse" x="0" y="20" width="13" height="15">
<path d="M0.518066 20.1411H12.9103V34.7623H0.518066V20.1411Z" fill="white"/>
</mask>
<g mask="url(#mask0_1255_5932)">
<path fill-rule="evenodd" clip-rule="evenodd" d="M5.723 22.2895C5.18666 22.2895 4.95908 22.7428 4.95908 23.353C4.95908 23.9047 5.07316 24.319 5.56062 25.1463C6.16156 24.5943 6.43803 24.0031 6.43803 23.4712C6.43803 22.7621 6.22675 22.2895 5.723 22.2895ZM4.54008 28.6604C4.03099 29.019 3.37612 29.4516 3.29907 30.423C3.21314 31.5081 3.91246 32.2382 5.01538 32.2661C5.35615 32.275 6.02525 32.0999 6.60012 31.6485C5.8119 30.663 5.20295 29.7506 4.54008 28.6607V28.6604ZM11.0186 34.7028C9.9305 34.7028 9.15088 34.4669 8.22486 33.5995C7.23366 34.3878 6.17786 34.7623 5.02457 34.7623C2.45544 34.7623 0.679276 33.2789 0.525188 30.5181C0.446662 29.1076 0.996639 27.9371 3.22114 26.5059C2.5873 25.3431 2.36002 24.5554 2.36002 23.5897C2.36002 21.4414 3.6597 20.1411 5.82049 20.1411C7.78601 20.1411 8.87441 21.5006 8.87441 23.4321C8.87441 24.8307 8.15967 25.8359 6.8111 26.7814C7.44524 27.7273 7.99729 28.5161 8.48444 29.1662C8.9556 28.2402 9.58469 27.2055 10.0876 25.9227L12.2726 26.9592C11.6513 28.9141 10.8236 30.2632 10.1255 31.373C10.5477 31.7866 10.8399 31.8957 11.2628 31.9052C12.0919 31.9241 12.3127 31.8509 12.9103 31.5988V34.4115C12.1864 34.6524 11.4741 34.7031 11.0186 34.7031" fill="#78909E"/>
</g>
<path fill-rule="evenodd" clip-rule="evenodd" d="M5.47461 18.9296V0.0532227H16.8982V4.5366H10.1918V7.50932H14.586V11.5995H10.1918V14.5781H16.8985V18.9299L5.47461 18.9296ZM31.6607 18.9296V9.64878C31.6607 8.70528 31.3603 8.23265 30.6201 8.23265C30.2734 8.23265 29.9495 8.33784 29.6025 8.54734V18.9296H24.885V9.64878C24.885 8.70528 24.5842 8.23265 23.844 8.23265C23.4973 8.23265 23.1731 8.33784 22.8267 8.54734V18.9296H18.109V4.5366H21.4619L22.8267 7.3419H22.9195C24.3534 5.32304 25.3242 4.45808 26.804 4.45808C28.3075 4.45808 29.2786 5.42824 29.5331 7.3419H29.6949C31.1288 5.32304 32.1002 4.45808 33.5803 4.45808C35.3375 4.45808 36.3785 5.74294 36.3785 8.41696V18.9299H31.6607V18.9296ZM71.6419 17.9707L70.1254 14.8199C69.0245 15.3939 67.9521 15.7548 66.9576 15.7548C65.692 15.7548 64.3233 15.2066 64.1609 13.3875H71.3515V11.4051C71.3515 7.00053 69.3167 4.45808 65.8245 4.45808C62.471 4.45808 60.2981 7.00053 60.2981 11.4054V12.1655C60.2981 16.5703 62.407 18.9196 66.1718 19.1131C67.9865 19.2067 69.6758 18.967 71.6419 17.9707ZM67.2113 10.8273H64.1716C64.1716 8.83211 64.5379 7.37212 65.6977 7.37212C66.5303 7.37212 67.1885 8.10197 67.2113 10.8273ZM95.995 35.8829V35.044C95.995 30.6395 93.8381 28.0961 90.1044 28.0961C86.3701 28.0961 84.2135 30.6395 84.2135 35.044V35.8826C84.2135 40.2872 86.3701 42.8305 90.1044 42.8305C93.8381 42.8305 95.9953 40.2872 95.9953 35.8829H95.995ZM91.5042 35.9087C91.5042 38.8713 91.1205 39.6845 90.1044 39.6845C89.0892 39.6845 88.7046 38.8713 88.7046 35.9087V35.0173C88.7046 32.0547 89.0892 31.2422 90.1044 31.2422C91.1205 31.2422 91.5042 32.0547 91.5042 35.0173V35.9087ZM72.1104 42.8305C68.5616 42.8305 66.3819 40.2869 66.3819 35.8826V35.044C66.3819 30.6395 68.5851 28.0958 72.2494 28.0958C75.3804 28.0958 77.1897 29.7739 77.6069 33.2871L73.3399 34.1524C73.2471 32.2381 73.0151 31.5041 72.2035 31.5041C71.3915 31.5041 70.851 32.3172 70.851 35.2799V35.6464C70.851 38.6091 71.4378 39.4222 72.2497 39.4222C72.8986 39.4222 73.2471 38.9235 73.4557 37.0362L77.6303 37.9015C77.0738 41.3625 75.172 42.8305 72.1104 42.8305Z" fill="#78909E"/>
<mask id="mask1_1255_5932" style="mask-type:alpha" maskUnits="userSpaceOnUse" x="0" y="0" width="108" height="48">
<path d="M0.518066 48H107.156V0H0.518066V48Z" fill="white"/>
</mask>
<g mask="url(#mask1_1255_5932)">
<path fill-rule="evenodd" clip-rule="evenodd" d="M78.4349 42.5681H83.1666V28.0945H78.4349V42.5681ZM94.7766 14.9679V9.33185C94.7766 5.89746 93.3655 4.53437 89.9432 4.53437C87.9546 4.53437 86.1784 5.25148 84.2126 6.40477L85.6276 9.31259C87.3388 8.31665 88.3013 8.07366 89.1337 8.07366C89.9892 8.07366 90.4517 8.59756 90.4517 9.41097V10.4857C85.7577 10.8265 83.7222 12.3733 83.7222 15.2568C83.7222 17.6956 85.2255 19.0326 87.0292 19.0326C88.3938 19.0326 89.3414 18.7188 90.4517 17.4606L91.1507 18.8975H95.9666C95.9666 18.8975 94.7766 17.2007 94.7766 14.9679ZM90.4517 15.7028C90.0357 15.9387 89.7118 16.0175 89.2495 16.0175C88.4169 16.0175 87.9546 15.493 87.9546 14.5759C87.9546 13.3959 88.4862 12.635 90.4517 12.2942V15.7025V15.7028ZM102.726 10.0229C102.065 9.79382 101.243 9.61336 100.702 9.14398C100.253 8.75343 100.334 8.24998 100.591 7.98091C101.103 7.44516 102.018 7.69467 102.856 7.96669C103.744 8.25472 104.495 8.80914 105.162 9.44149C105.641 8.40525 106.174 7.43242 106.645 6.39232C105.693 5.45416 104.462 4.75395 103.14 4.54445C101.626 4.30502 99.908 4.3951 98.5802 5.2331C96.2843 6.68331 95.6839 10.7169 97.9878 12.445C98.7506 13.0172 99.1183 13.3023 100.568 13.6125C101.286 13.766 102.904 13.9 102.781 14.9075C102.702 15.552 101.663 15.7461 100.588 15.6868C99.6324 15.6341 98.6987 15.2266 97.8518 14.6793C97.3392 15.795 96.7596 16.8674 96.2449 17.9824C97.4518 18.6832 98.9307 19.0329 100.302 19.1959C101.749 19.3677 103.3 19.2658 104.625 18.6056C105.675 18.0826 106.495 17.1963 106.876 16.0762C107.26 14.9487 107.301 13.5545 106.665 12.5117C105.836 11.1513 104.152 10.5171 102.726 10.0226V10.0229ZM102.726 33.7335C102.065 33.5039 101.243 33.324 100.702 32.8543C100.253 32.4638 100.334 31.9606 100.591 31.691C101.103 31.1555 102.018 31.4053 102.856 31.677C103.744 31.9654 104.495 32.5195 105.162 33.1521C105.641 32.1159 106.174 31.1425 106.645 30.1027C105.693 29.1642 104.462 28.4643 103.14 28.2548C101.626 28.0154 99.908 28.1054 98.5802 28.9437C96.2843 30.3937 95.6839 34.4275 97.9878 36.1554C98.7506 36.7279 99.1183 37.0129 100.568 37.3229C101.286 37.4764 102.904 37.6106 102.781 38.6175C102.702 39.2623 101.663 39.4561 100.588 39.3969C99.6324 39.3447 98.6987 38.9373 97.8518 38.3894C97.3392 39.5056 96.7596 40.5777 96.2449 41.6928C97.4518 42.3936 98.9307 42.7432 100.302 42.9062C101.749 43.0781 103.3 42.9762 104.625 42.3159C105.675 41.7932 106.495 40.9069 106.876 39.7868C107.26 38.6593 107.301 37.2648 106.665 36.222C105.836 34.8613 104.152 34.2278 102.726 33.7335ZM78.8189 10.0229C78.1575 9.79382 77.3353 9.61336 76.7948 9.14398C76.3452 8.75343 76.4261 8.24998 76.6836 7.98091C77.1957 7.44516 78.1107 7.69467 78.949 7.96669C79.8368 8.25472 80.5877 8.80914 81.2544 9.44149C81.7333 8.40525 82.2667 7.43242 82.7375 6.39232C81.7851 5.45416 80.5548 4.75395 79.2326 4.54445C77.7187 4.30502 76.0006 4.3951 74.6728 5.2331C72.3766 6.68331 71.7765 10.7169 74.0801 12.445C74.8429 13.0172 75.2109 13.3023 76.6608 13.6125C77.3785 13.766 78.997 13.9 78.8738 14.9075C78.7943 15.552 77.7557 15.7461 76.6807 15.6868C75.725 15.6341 74.791 15.2266 73.9444 14.6793C73.4315 15.795 72.8519 16.8674 72.3372 17.9824C73.5441 18.6832 75.023 19.0329 76.3944 19.1959C77.842 19.3677 79.3926 19.2658 80.7169 18.6056C81.7674 18.0826 82.5876 17.1963 82.9687 16.0762C83.3527 14.9487 83.3933 13.5545 82.7574 12.5117C81.9283 11.1513 80.2449 10.5171 78.8189 10.0226V10.0229ZM23.4076 42.5681L18.9313 32.894H18.8386V42.5681H14.1211V23.6911H18.955L22.9672 32.4223H23.0597V23.6911H27.7775V42.5678L23.4076 42.5681ZM40.1688 41.6415L38.6531 38.4913C37.5517 39.065 36.4796 39.4256 35.4854 39.4256C34.219 39.4256 32.8502 38.878 32.6887 37.0586H39.8793V35.0765C39.8793 30.6716 37.8436 28.1292 34.3523 28.1292C30.9988 28.1292 28.825 30.6716 28.825 35.0765V35.8365C28.825 40.2411 30.9342 42.5909 34.6987 42.7844C36.5143 42.8775 38.2036 42.6383 40.1688 41.6415ZM35.7394 34.4983H32.6991C32.6991 32.5032 33.0657 31.0432 34.2252 31.0432C35.0581 31.0432 35.716 31.773 35.7394 34.4983ZM43.597 15.394C42.7317 15.394 42.2994 15.0112 42.2994 15.0112V8.32998C42.2994 8.32998 42.7314 7.94773 43.597 7.94773C44.6744 7.94773 45.3904 9.46935 45.3936 11.6704C45.3907 13.8721 44.6744 15.3938 43.597 15.3938V15.394ZM45.8372 4.45822C44.3141 4.45822 43.2835 4.88463 42.2994 6.58879L40.883 4.53645H37.653V22.6285H42.2994V16.9512C43.1899 18.6551 44.2208 18.8255 45.8375 18.8255C48.0866 18.8255 49.6799 16.3867 49.6799 11.93V11.3264C49.6799 6.8697 48.204 4.45822 45.8375 4.45822H45.8372ZM71.642 17.9709L70.1254 14.8201C69.0246 15.394 67.9522 15.755 66.9577 15.755C65.6921 15.755 64.3234 15.2068 64.161 13.3876H71.3516V11.4052C71.3516 7.00067 69.3167 4.45822 65.8246 4.45822C62.4711 4.45822 60.2981 7.00068 60.2981 11.4055V12.1656C60.2981 16.5705 62.407 18.9197 66.1718 19.1132C67.9865 19.2068 69.6759 18.9671 71.642 17.9709ZM67.2113 10.8274H64.1717C64.1717 8.83225 64.5379 7.37227 65.6977 7.37227C66.5304 7.37227 67.1885 8.10211 67.2113 10.8274Z" fill="#78909E"/>
<path fill-rule="evenodd" clip-rule="evenodd" d="M71.6422 17.9709L70.1256 14.8201C69.0247 15.3941 67.9523 15.755 66.9579 15.755C65.6923 15.755 64.3236 15.2068 64.1612 13.3877H71.3518V11.4053C71.3518 7.00071 69.3169 4.45825 65.8247 4.45825C62.4712 4.45825 60.2983 7.00071 60.2983 11.4056V12.1656C60.2983 16.5705 62.4072 18.9197 66.172 19.1132C67.9867 19.2069 69.6761 18.9672 71.6422 17.9709ZM67.2115 10.8274H64.1718C64.1718 8.83229 64.5381 7.3723 65.6979 7.3723C66.5306 7.3723 67.1887 8.10215 67.2115 10.8274ZM55.5008 10.8322V8.33031C55.5008 8.33031 56.1047 7.94746 57.2322 7.94746C57.9642 7.94746 58.7627 8.3638 59.3622 9.07112C59.6763 7.51157 60.2758 6.23501 61.1215 5.28796C60.546 4.74391 59.8473 4.45825 59.0428 4.45825C57.5197 4.45825 56.4888 5.27314 55.5047 6.977L54.0885 4.53618H50.8586V18.9301H55.5008V10.8322ZM60.9692 35.9086C60.9692 38.8715 60.5851 39.6846 59.569 39.6846C58.5541 39.6846 58.1695 38.8715 58.1695 35.9089V35.0175C58.1695 32.0549 58.5541 31.2424 59.569 31.2424C60.5851 31.2424 60.9692 32.0549 60.9692 35.0175V35.9089V35.9086ZM59.569 28.0963C55.8354 28.0963 53.6781 30.6396 53.6781 35.0442V35.8828C53.6781 40.2873 55.8354 42.8307 59.569 42.8307C63.3033 42.8307 65.46 40.2873 65.46 35.8831V35.0442C65.46 30.6396 63.3033 28.0963 59.569 28.0963ZM46.8837 39.0298C45.8063 39.0298 45.0904 37.5078 45.0871 35.3064C45.0901 33.1054 45.8063 31.5834 46.8837 31.5834C47.7493 31.5834 48.1816 31.966 48.1816 31.966V38.6469C48.1816 38.6469 47.7493 39.0298 46.8837 39.0298ZM49.5975 28.0945L48.1813 30.6133C47.1975 28.9094 46.1663 28.0945 44.6432 28.0945C42.2768 28.0945 40.8008 30.5057 40.8008 34.9624V35.566C40.8008 40.0227 42.3941 42.4615 44.6432 42.4615C46.26 42.4615 47.2909 42.2914 48.1813 40.5878V41.2042C48.1683 42.7258 47.6198 43.8222 46.3394 44.0809C45.3437 44.2824 43.9042 44.0044 42.7556 43.391L41.0672 46.7454C42.6673 47.7577 44.7626 48.0001 45.6027 48.0001C49.7584 48.0001 52.8274 45.8562 52.8274 40.3368V28.0945H49.5975ZM78.4351 26.9676H83.1526V23.6911H78.4351V26.9676ZM59.7202 26.8517C60.3034 26.8509 60.885 26.9138 61.4545 27.0393L62.8307 23.6914H58.4353L58.1197 27.007C58.6467 26.9025 59.1827 26.8505 59.7199 26.8517" fill="#78909E"/>
<path fill-rule="evenodd" clip-rule="evenodd" d="M28.9844 25.3669C28.9844 24.1736 29.7933 23.6343 30.7436 23.6343C31.3982 23.6343 31.8095 23.9084 32.0564 24.2174L31.3627 24.8368C31.2391 24.704 31.0575 24.5271 30.7131 24.5271C30.2974 24.5271 29.9747 24.8276 29.9747 25.3275C29.9747 25.8404 30.2221 26.1809 30.7173 26.1809C31.1464 26.1809 31.3096 25.9995 31.3496 25.8623H30.6687V25.1369H32.2336V26.9276L31.6857 27.0118L31.5043 26.4414C31.376 26.711 31.0444 27.0162 30.4257 27.0162C29.665 27.0162 28.9844 26.3928 28.9844 25.3669ZM33.6861 25.3052H34.2035C34.4687 25.3052 34.6806 25.2211 34.6806 24.9206C34.6806 24.6068 34.4776 24.523 34.2035 24.523H33.6861V25.3052ZM35.636 26.9676H34.6104L34.1772 26.0834H33.6861V26.9676H32.7311V23.6918H34.4598C35.2866 23.6918 35.6668 24.24 35.6668 24.8854C35.6668 25.2833 35.5121 25.7032 35.1055 25.9243L35.636 26.9676ZM39.708 26.9676V23.6912H40.7514L41.9628 25.3091V23.6912H42.9003V26.9673H41.9986L40.6456 25.1636V26.9673L39.708 26.9676ZM44.4587 26.1142H44.7458C45.3385 26.1142 45.6259 25.8979 45.6259 25.3278C45.6259 24.7618 45.3474 24.5757 44.702 24.5757H44.4587V26.1142ZM43.4814 26.9676V23.6912H44.7328C45.6878 23.6912 46.6162 23.9964 46.6162 25.3275C46.6162 26.6354 45.6304 26.9673 44.6709 26.9673H43.4814V26.9676ZM47.0207 26.9676V23.6912H49.4743V24.5757H47.998V24.9337H49.4743V25.7026H47.998V26.1187H49.4743V26.9673L47.0207 26.9676ZM49.818 26.5347L50.2862 25.8671C50.6136 26.0923 51.0685 26.2117 51.4309 26.2117C51.8955 26.2117 52.0064 26.1056 52.0064 25.9732C52.0064 25.8357 51.8733 25.7871 51.3915 25.7474C50.6886 25.6899 50.0035 25.5088 50.0035 24.7087C50.0035 23.9173 50.653 23.6384 51.3959 23.6384C52.1738 23.6384 52.5987 23.8376 52.8284 24.0233L52.3424 24.7262C52.1563 24.6024 51.7361 24.4915 51.409 24.4915C51.0866 24.4915 50.9805 24.5449 50.9805 24.6732C50.9805 24.832 51.1171 24.8717 51.6037 24.9117C52.3374 24.974 52.9786 25.1153 52.9786 25.9287C52.9786 26.5919 52.4126 27.0207 51.4623 27.0207C50.5959 27.0207 50.1626 26.8082 49.8177 26.5347H49.818ZM37.1946 25.7782L37.5662 24.8234L37.9375 25.7782H37.1946ZM37.1105 23.6918L35.8022 26.9676H36.7347L36.8853 26.583H38.2513L38.4015 26.9676H39.3966L38.0788 23.6918H37.1105Z" fill="#78909E"/>
<path fill-rule="evenodd" clip-rule="evenodd" d="M33.6862 25.3052H34.2036C34.4688 25.3052 34.6807 25.2211 34.6807 24.9206C34.6807 24.6068 34.4777 24.5229 34.2036 24.5229H33.6862V25.3052ZM35.636 26.9676H34.6105L34.1772 26.0834H33.6862V26.9676H32.7312V23.6917H34.4599C35.2867 23.6917 35.6669 24.2399 35.6669 24.8853C35.6669 25.2833 35.5122 25.7032 35.1056 25.9242L35.636 26.9676ZM19.0644 1.76022H19.6037C19.8689 1.76022 20.1075 1.63576 20.1075 1.32669C20.1075 0.999256 19.8772 0.884875 19.6037 0.884875H19.0644V1.75992V1.76022ZM18.1094 3.32955V0.0533904H19.8423C20.6246 0.0533904 21.0934 0.56603 21.0934 1.27365C21.0934 1.97653 20.6341 2.54251 19.7848 2.54251H19.0647V3.32955H18.1097H18.1094ZM21.4981 3.32925V0.0533904H23.9517V0.937621H22.4754V1.29588H23.9523V2.06484H22.4754V2.48028H23.9523V3.32895L21.4981 3.32925ZM28.3118 2.02928V0.0533904H29.2932V1.89238C29.2932 2.33864 29.4921 2.53362 29.9297 2.53362C30.3585 2.53362 30.5621 2.36116 30.5621 1.89238V0.0533904H31.5127V2.02928C31.5127 2.64385 31.15 3.39533 29.9167 3.39533C28.6786 3.39533 28.3118 2.64385 28.3118 2.02928ZM32.063 3.32925V0.0533904H34.5165V0.937621H33.0399V1.29588H34.5165V2.06484H33.0399V2.48028H34.5165V3.32895L32.063 3.32925ZM35.1604 3.32925V0.0533904H36.2038L37.4152 1.67132V0.0533904H38.3524V3.32925H37.4507L36.0977 1.52553V3.32925H35.1604ZM40.8084 2.1401L40.4368 1.18535L40.0652 2.1401H40.8084ZM39.7561 2.94492L39.6053 3.32955H38.6728L39.9902 0.0311661H40.9408L42.2672 3.32925H41.2724L41.1219 2.94492H39.7558H39.7561ZM42.2784 2.89602L42.7466 2.22841C43.0741 2.45421 43.5298 2.57303 43.8922 2.57303C44.3563 2.57303 44.4671 2.46724 44.4671 2.33449C44.4671 2.19759 44.3343 2.14899 43.8519 2.10899C43.1496 2.0515 42.4639 1.87045 42.4639 1.07037C42.4639 0.278596 43.1138 5.21263e-05 43.8567 5.21263e-05C44.6351 5.21263e-05 45.0591 0.199182 45.2891 0.38468L44.8028 1.08786C44.617 0.96429 44.1974 0.853465 43.87 0.853465C43.5476 0.853465 43.4412 0.906507 43.4412 1.03481C43.4412 1.19394 43.5784 1.23335 44.0644 1.27336C44.7984 1.33558 45.4393 1.47693 45.4393 2.29004C45.4393 2.95351 44.8736 3.38229 43.923 3.38229C43.0566 3.38229 42.6234 3.17012 42.2784 2.89602ZM25.3954 1.69591C25.3954 1.19987 25.6914 0.81435 26.1806 0.81435C26.666 0.81435 26.9618 1.19987 26.9618 1.69591C26.9618 1.90571 26.9072 2.09239 26.8106 2.24174L26.661 1.94838L25.8959 2.20855L26.0743 2.57066C25.6505 2.51792 25.3954 2.15818 25.3954 1.69591ZM27.4264 3.23176C27.3197 3.21991 27.299 3.19027 27.2486 3.09693C27.2465 3.09333 27.2445 3.08968 27.2427 3.08597C27.6593 2.8092 27.9518 2.34723 27.9518 1.69769C27.9518 -0.566222 24.4048 -0.566222 24.4048 1.69769C24.4048 2.9541 25.4976 3.51208 26.4701 3.3734L26.4918 3.41785C26.5383 3.50793 26.6005 3.60839 26.6005 3.60839C26.6971 3.75862 26.8465 3.87211 27.0755 3.89878C27.157 3.90827 27.5467 3.95212 27.9201 3.70795L27.6543 3.1636C27.536 3.2365 27.4616 3.23561 27.4261 3.23176" fill="#78909E"/>
</g>
</svg>
