<svg width="309" height="100" viewBox="0 0 309 100" fill="none" xmlns="http://www.w3.org/2000/svg">
<rect x="0.5" y="0.5" width="307.27" height="99" rx="9.5" stroke="white"/>
<path d="M62.0659 51.1931C62.094 49.0111 62.6736 46.8716 63.7507 44.9738C64.8278 43.076 66.3675 41.4814 68.2265 40.3386C67.0455 38.652 65.4876 37.264 63.6764 36.2848C61.8652 35.3056 59.8506 34.7623 57.7926 34.6979C53.4027 34.2371 49.1468 37.3247 46.9098 37.3247C44.6295 37.3247 41.1852 34.7436 37.4763 34.8199C35.0773 34.8974 32.7392 35.5951 30.69 36.8448C28.6408 38.0946 26.9502 39.8539 25.783 41.9512C20.7271 50.7048 24.4983 63.5696 29.3415 70.6454C31.7647 74.1102 34.5966 77.9804 38.3022 77.8432C41.9283 77.6928 43.2826 75.5309 47.6596 75.5309C51.996 75.5309 53.2666 77.8432 57.0473 77.7559C60.9383 77.6927 63.3898 74.2757 65.728 70.7781C67.469 68.3093 68.8087 65.5808 69.6975 62.6936C67.4369 61.7374 65.5078 60.1371 64.1507 58.092C62.7936 56.0468 62.0685 53.6475 62.0659 51.1931V51.1931Z" stroke="white" stroke-width="2"/>
<path d="M54.9247 30.0444C57.0463 27.4976 58.0914 24.2241 57.8384 20.9191C54.5971 21.2595 51.6031 22.8086 49.453 25.2577C48.4017 26.4541 47.5965 27.846 47.0835 29.3539C46.5704 30.8617 46.3596 32.4558 46.463 34.0452C48.0842 34.0619 49.6881 33.7105 51.1538 33.0175C52.6195 32.3245 53.9088 31.3079 54.9247 30.0444Z" stroke="white" stroke-width="2"/>
<path d="M107.902 69.0717H95.5282L92.5565 77.8463H87.3152L99.0359 45.3826H104.481L116.202 77.8463H110.871L107.902 69.0717ZM96.8097 65.0227H106.618L101.783 50.7822H101.648L96.8097 65.0227Z" fill="white"/>
<path d="M141.515 66.0132C141.515 73.3683 137.578 78.0938 131.637 78.0938C130.132 78.1725 128.636 77.8259 127.319 77.0935C126.002 76.3612 124.918 75.2728 124.19 73.9529H124.078V85.6761H119.22V54.1776H123.922V58.1143H124.012C124.772 56.8007 125.875 55.7179 127.202 54.9811C128.529 54.2443 130.031 53.881 131.548 53.9299C137.555 53.93 141.515 58.6785 141.515 66.0132ZM136.521 66.0132C136.521 61.2213 134.045 58.0709 130.266 58.0709C126.554 58.0709 124.058 61.2876 124.058 66.0132C124.058 70.7821 126.554 73.9759 130.266 73.9759C134.045 73.9759 136.521 70.8485 136.521 66.0132Z" fill="white"/>
<path d="M167.565 66.0133C167.565 73.3684 163.629 78.094 157.688 78.094C156.183 78.1727 154.686 77.826 153.369 77.0937C152.052 76.3613 150.968 75.2729 150.241 73.953H150.128V85.6763H145.27V54.1777H149.973V58.1144H150.062C150.823 56.8009 151.925 55.7181 153.252 54.9813C154.579 54.2444 156.081 53.8812 157.598 53.9301C163.606 53.9301 167.565 58.6786 167.565 66.0133ZM162.572 66.0133C162.572 61.2214 160.095 58.071 156.317 58.071C152.605 58.071 150.108 61.2878 150.108 66.0133C150.108 70.7823 152.605 73.976 156.317 73.976C160.095 73.976 162.572 70.8487 162.572 66.0133H162.572Z" fill="white"/>
<path d="M184.783 68.8011C185.143 72.0205 188.27 74.1342 192.544 74.1342C196.639 74.1342 199.585 72.0204 199.585 69.1176C199.585 66.5978 197.808 65.0891 193.601 64.0551L189.393 63.0415C183.432 61.6017 180.665 58.8138 180.665 54.2899C180.665 48.6887 185.546 44.8414 192.477 44.8414C199.337 44.8414 204.04 48.6887 204.198 54.2899H199.294C199 51.0502 196.322 49.0946 192.408 49.0946C188.495 49.0946 185.816 51.0732 185.816 53.953C185.816 56.2481 187.527 57.5986 191.711 58.6325L195.288 59.5107C201.949 61.0859 204.716 63.7614 204.716 68.5099C204.716 74.5834 199.878 78.3873 192.184 78.3873C184.984 78.3873 180.123 74.6728 179.809 68.8009L184.783 68.8011Z" fill="white"/>
<path d="M215.201 48.5765V54.1777H219.702V58.025H215.201V71.0733C215.201 73.1003 216.102 74.0449 218.081 74.0449C218.615 74.0356 219.149 73.9981 219.679 73.9325V77.7569C218.79 77.9231 217.885 77.9984 216.981 77.9815C212.189 77.9815 210.32 76.1817 210.32 71.5914V58.025H206.879V54.1777H210.32V48.5765H215.201Z" fill="white"/>
<path d="M222.309 66.0133C222.309 58.5663 226.695 53.8867 233.534 53.8867C240.397 53.8867 244.762 58.5662 244.762 66.0133C244.762 73.4807 240.42 78.1399 233.534 78.1399C226.651 78.1399 222.309 73.4807 222.309 66.0133ZM239.812 66.0133C239.812 60.9048 237.471 57.8897 233.534 57.8897C229.597 57.8897 227.259 60.9278 227.259 66.0133C227.259 71.1422 229.597 74.1343 233.534 74.1343C237.471 74.1343 239.812 71.1422 239.812 66.0133H239.812Z" fill="white"/>
<path d="M248.768 54.1777H253.401V58.2063H253.514C253.827 56.9481 254.564 55.8361 255.601 55.0574C256.638 54.2787 257.911 53.8806 259.207 53.93C259.767 53.9281 260.325 53.9889 260.871 54.1113V58.6556C260.165 58.4396 259.427 58.3405 258.688 58.362C257.983 58.3334 257.279 58.4578 256.626 58.7268C255.973 58.9958 255.386 59.4029 254.905 59.9202C254.424 60.4376 254.06 61.0528 253.84 61.7238C253.619 62.3948 253.546 63.1057 253.626 63.8075V77.8463H248.768L248.768 54.1777Z" fill="white"/>
<path d="M283.271 70.8946C282.618 75.1912 278.433 78.1399 273.08 78.1399C266.194 78.1399 261.921 73.5266 261.921 66.1256C261.921 58.7016 266.217 53.8867 272.875 53.8867C279.424 53.8867 283.542 58.385 283.542 65.5614V67.2259H266.825V67.5195C266.748 68.3906 266.857 69.2681 267.145 70.0938C267.433 70.9195 267.893 71.6744 268.495 72.3085C269.098 72.9426 269.828 73.4413 270.638 73.7715C271.447 74.1016 272.318 74.2558 273.192 74.2236C274.34 74.3312 275.492 74.0653 276.477 73.4655C277.462 72.8657 278.227 71.964 278.658 70.8945L283.271 70.8946ZM266.848 63.8305H278.681C278.724 63.0473 278.606 62.2635 278.332 61.5283C278.058 60.7932 277.636 60.1225 277.091 59.5585C276.546 58.9944 275.89 58.5491 275.164 58.2505C274.439 57.9519 273.66 57.8065 272.875 57.8233C272.084 57.8186 271.3 57.9706 270.568 58.2706C269.836 58.5706 269.17 59.0125 268.61 59.571C268.05 60.1295 267.605 60.7935 267.303 61.5245C267 62.2556 266.846 63.0393 266.848 63.8305V63.8305Z" fill="white"/>
<path d="M96.2008 20.9471C97.2194 20.874 98.2414 21.0279 99.1933 21.3977C100.145 21.7674 101.003 22.3438 101.705 23.0852C102.407 23.8267 102.936 24.7148 103.254 25.6854C103.571 26.6559 103.669 27.6849 103.541 28.6979C103.541 33.6813 100.847 36.5459 96.2008 36.5459H90.5664V20.9471H96.2008ZM92.9892 34.3399H95.9302C96.658 34.3834 97.3864 34.2641 98.0623 33.9906C98.7382 33.7171 99.3446 33.2963 99.8373 32.7589C100.33 32.2215 100.697 31.581 100.911 30.884C101.125 30.187 101.181 29.4511 101.074 28.7297C101.173 28.0112 101.111 27.2799 100.894 26.588C100.677 25.8961 100.309 25.2608 99.8176 24.7277C99.3259 24.1945 98.7225 23.7768 98.0504 23.5043C97.3783 23.2318 96.6543 23.1113 95.9302 23.1515H92.9892V34.3399Z" fill="white"/>
<path d="M106.277 30.6547C106.203 29.8811 106.292 29.1006 106.537 28.3632C106.782 27.6258 107.179 26.9478 107.702 26.3727C108.225 25.7976 108.862 25.3381 109.572 25.0237C110.283 24.7093 111.052 24.5468 111.829 24.5468C112.606 24.5468 113.374 24.7093 114.085 25.0237C114.796 25.3381 115.433 25.7976 115.956 26.3727C116.478 26.9478 116.875 27.6258 117.12 28.3632C117.366 29.1006 117.454 29.8811 117.38 30.6547C117.456 31.4291 117.368 32.2107 117.124 32.9493C116.879 33.6879 116.482 34.3671 115.96 34.9433C115.437 35.5195 114.799 35.98 114.088 36.2951C113.376 36.6102 112.607 36.773 111.829 36.773C111.051 36.773 110.281 36.6102 109.57 36.2951C108.858 35.98 108.221 35.5195 107.698 34.9433C107.175 34.3671 106.779 33.6879 106.534 32.9493C106.289 32.2107 106.202 31.4291 106.277 30.6547ZM114.991 30.6547C114.991 28.103 113.844 26.6108 111.833 26.6108C109.813 26.6108 108.677 28.103 108.677 30.6547C108.677 33.2269 109.813 34.7076 111.833 34.7076C113.844 34.7075 114.991 33.2166 114.991 30.6547H114.991Z" fill="white"/>
<path d="M132.139 36.5456H129.729L127.296 27.8757H127.112L124.689 36.5456H122.302L119.058 24.7739H121.414L123.523 33.7564H123.696L126.117 24.7739H128.345L130.766 33.7564H130.949L133.048 24.7739H135.371L132.139 36.5456Z" fill="white"/>
<path d="M138.1 24.7738H140.337V26.6439H140.51C140.805 25.9722 141.301 25.4092 141.931 25.0332C142.561 24.6573 143.292 24.4872 144.023 24.5466C144.596 24.5035 145.171 24.5899 145.706 24.7993C146.241 25.0087 146.722 25.3357 147.113 25.7562C147.504 26.1767 147.796 26.6798 147.966 27.2284C148.137 27.7769 148.182 28.3567 148.098 28.9249V36.5454H145.774V29.5083C145.774 27.6166 144.952 26.6758 143.234 26.6758C142.845 26.6577 142.457 26.7239 142.096 26.8698C141.735 27.0158 141.41 27.238 141.143 27.5214C140.876 27.8047 140.674 28.1424 140.549 28.5114C140.425 28.8803 140.382 29.2718 140.423 29.6589V36.5456H138.1L138.1 24.7738Z" fill="white"/>
<path d="M151.799 20.1785H154.123V36.5456H151.799V20.1785Z" fill="white"/>
<path d="M157.352 30.6547C157.278 29.8811 157.367 29.1005 157.612 28.3631C157.858 27.6257 158.254 26.9477 158.777 26.3726C159.3 25.7975 159.937 25.338 160.648 25.0235C161.358 24.7091 162.127 24.5467 162.904 24.5467C163.681 24.5467 164.45 24.7091 165.161 25.0235C165.871 25.338 166.509 25.7975 167.031 26.3726C167.554 26.9477 167.951 27.6257 168.196 28.3631C168.442 29.1005 168.53 29.8811 168.456 30.6547C168.532 31.4292 168.444 32.2108 168.199 32.9494C167.955 33.688 167.558 34.3672 167.035 34.9434C166.512 35.5196 165.875 35.98 165.163 36.2951C164.452 36.6102 163.682 36.773 162.904 36.773C162.126 36.773 161.357 36.6102 160.645 36.2951C159.934 35.98 159.296 35.5196 158.773 34.9434C158.25 34.3672 157.854 33.688 157.609 32.9494C157.364 32.2108 157.277 31.4292 157.352 30.6547ZM166.065 30.6547C166.065 28.1031 164.919 26.6108 162.907 26.6108C160.888 26.6108 159.752 28.1031 159.752 30.6548C159.752 33.2269 160.888 34.7076 162.907 34.7076C164.919 34.7076 166.065 33.2166 166.065 30.6547H166.065Z" fill="white"/>
<path d="M170.902 33.2165C170.902 31.0976 172.48 29.876 175.28 29.7024L178.469 29.5186V28.5025C178.469 27.2592 177.647 26.5571 176.059 26.5571C174.762 26.5571 173.864 27.0333 173.606 27.8655H171.356C171.594 25.8436 173.496 24.5467 176.166 24.5467C179.118 24.5467 180.782 26.0159 180.782 28.5025V36.5456H178.546V34.8913H178.362C177.989 35.4847 177.465 35.9685 176.844 36.2932C176.222 36.6179 175.526 36.7719 174.826 36.7396C174.332 36.791 173.832 36.7382 173.36 36.5848C172.887 36.4313 172.452 36.1806 172.082 35.8486C171.713 35.5167 171.417 35.111 171.213 34.6576C171.01 34.2043 170.904 33.7134 170.902 33.2165ZM178.469 32.2107V31.2265L175.594 31.4103C173.973 31.5188 173.238 32.0702 173.238 33.108C173.238 34.1675 174.157 34.784 175.421 34.784C175.791 34.8215 176.165 34.7841 176.521 34.6741C176.876 34.5641 177.206 34.3836 177.49 34.1435C177.775 33.9034 178.008 33.6086 178.176 33.2765C178.344 32.9445 178.444 32.582 178.469 32.2107Z" fill="white"/>
<path d="M183.835 30.6547C183.835 26.935 185.748 24.5786 188.722 24.5786C189.457 24.5447 190.188 24.7209 190.827 25.0866C191.466 25.4523 191.988 25.9925 192.332 26.6438H192.505V20.1785H194.828V36.5456H192.602V34.6858H192.418C192.048 35.3328 191.508 35.8661 190.857 36.2282C190.205 36.5902 189.467 36.7671 188.722 36.7396C185.727 36.7397 183.835 34.3833 183.835 30.6547ZM186.235 30.6547C186.235 33.1515 187.412 34.6539 189.381 34.6539C191.339 34.6539 192.549 33.1298 192.549 30.6649C192.549 28.2115 191.326 26.6656 189.381 26.6656C187.425 26.6656 186.235 28.1783 186.235 30.6547H186.235Z" fill="white"/>
<path d="M204.44 30.6547C204.366 29.8811 204.455 29.1006 204.7 28.3632C204.946 27.6258 205.342 26.9478 205.865 26.3727C206.388 25.7976 207.025 25.3381 207.735 25.0237C208.446 24.7093 209.215 24.5468 209.992 24.5468C210.769 24.5468 211.538 24.7093 212.248 25.0237C212.959 25.3381 213.596 25.7976 214.119 26.3727C214.641 26.9478 215.038 27.6258 215.283 28.3632C215.529 29.1006 215.617 29.8811 215.543 30.6547C215.619 31.4291 215.531 32.2107 215.287 32.9493C215.042 33.6879 214.645 34.3671 214.123 34.9433C213.6 35.5195 212.962 35.98 212.251 36.2951C211.539 36.6102 210.77 36.773 209.992 36.773C209.214 36.773 208.444 36.6102 207.733 36.2951C207.022 35.98 206.384 35.5195 205.861 34.9433C205.338 34.3671 204.942 33.6879 204.697 32.9493C204.452 32.2107 204.365 31.4291 204.44 30.6547ZM213.154 30.6547C213.154 28.103 212.007 26.6108 209.996 26.6108C207.976 26.6108 206.84 28.103 206.84 30.6547C206.84 33.2269 207.976 34.7076 209.996 34.7076C212.007 34.7075 213.154 33.2166 213.154 30.6547Z" fill="white"/>
<path d="M218.66 24.7738H220.897V26.6439H221.07C221.365 25.9722 221.862 25.4092 222.491 25.0332C223.121 24.6573 223.852 24.4872 224.583 24.5466C225.156 24.5035 225.731 24.5899 226.266 24.7993C226.801 25.0087 227.282 25.3357 227.673 25.7562C228.065 26.1767 228.356 26.6798 228.527 27.2284C228.697 27.7769 228.742 28.3567 228.658 28.9249V36.5454H226.335V29.5083C226.335 27.6166 225.513 26.6758 223.795 26.6758C223.406 26.6577 223.017 26.7239 222.656 26.8698C222.296 27.0158 221.97 27.238 221.704 27.5214C221.437 27.8047 221.234 28.1424 221.11 28.5114C220.985 28.8803 220.942 29.2718 220.984 29.6589V36.5456H218.66V24.7738Z" fill="white"/>
<path d="M241.785 21.8431V24.8275H244.336V26.7844H241.785V32.8375C241.785 34.0705 242.293 34.6105 243.45 34.6105C243.746 34.6095 244.042 34.5916 244.336 34.5569V36.492C243.919 36.5666 243.496 36.6064 243.072 36.6107C240.488 36.6107 239.46 35.7019 239.46 33.4323V26.7843H237.591V24.8274H239.46V21.8431H241.785Z" fill="white"/>
<path d="M247.509 20.1785H249.812V26.6656H249.996C250.304 25.9877 250.815 25.4215 251.457 25.0441C252.099 24.6668 252.842 24.4966 253.585 24.5569C254.155 24.5259 254.724 24.621 255.253 24.8355C255.782 25.05 256.257 25.3785 256.644 25.7977C257.031 26.2168 257.321 26.7163 257.493 27.2604C257.665 27.8045 257.715 28.3799 257.639 28.9454V36.5456H255.314V29.5185C255.314 27.6383 254.438 26.686 252.796 26.686C252.397 26.6533 251.995 26.7082 251.62 26.8469C251.244 26.9856 250.903 27.2047 250.62 27.489C250.338 27.7732 250.121 28.1157 249.985 28.4926C249.849 28.8694 249.797 29.2714 249.832 29.6704V36.5456H247.509L247.509 20.1785Z" fill="white"/>
<path d="M271.185 33.3672C270.87 34.4431 270.186 35.3737 269.253 35.9963C268.321 36.6188 267.199 36.8937 266.084 36.7728C265.309 36.7933 264.538 36.6448 263.826 36.3375C263.113 36.0303 262.476 35.5717 261.959 34.9936C261.442 34.4155 261.056 33.7317 260.83 32.9897C260.603 32.2477 260.541 31.4653 260.647 30.6968C260.543 29.9259 260.607 29.1418 260.833 28.3976C261.059 27.6534 261.442 26.9665 261.957 26.3833C262.472 25.8001 263.106 25.3343 263.816 25.0175C264.526 24.7006 265.296 24.5401 266.074 24.5467C269.35 24.5467 271.326 26.7845 271.326 30.481V31.2917H263.013V31.4219C262.977 31.8539 263.031 32.2887 263.173 32.6985C263.314 33.1082 263.54 33.4839 263.835 33.8015C264.13 34.119 264.488 34.3713 264.887 34.5423C265.285 34.7132 265.715 34.799 266.148 34.7942C266.704 34.8609 267.267 34.7609 267.766 34.5068C268.264 34.2526 268.676 33.8559 268.949 33.3671L271.185 33.3672ZM263.013 29.5735H268.959C268.988 29.1784 268.935 28.7816 268.801 28.4085C268.668 28.0354 268.458 27.6943 268.186 27.4071C267.913 27.1199 267.583 26.8929 267.217 26.7409C266.851 26.5888 266.457 26.5149 266.061 26.524C265.66 26.5189 265.261 26.5944 264.889 26.7458C264.516 26.8973 264.178 27.1218 263.894 27.406C263.61 27.6902 263.386 28.0284 263.235 28.4006C263.083 28.7729 263.008 29.1717 263.013 29.5735H263.013Z" fill="white"/>
</svg>
