<svg width="322" height="393" viewBox="0 0 322 393" fill="none" xmlns="http://www.w3.org/2000/svg">
<g opacity="0.5">
<path d="M310.701 331.93C310.04 292.54 279.692 271.93 250.057 271.93C239.037 271.911 228.199 274.759 218.6 280.197L194.079 259.365C187.782 274.129 180.522 283.549 166.626 292.953L192.044 313.911C190.363 319.768 189.475 325.827 189.406 331.923V332.713C190.074 372.103 220.422 392.721 250.057 392.721C279.692 392.721 310.04 372.11 310.708 332.72V331.93H310.701ZM258.669 344C256.049 345.535 253.06 346.316 250.028 346.259C245.802 346.259 236.015 344.886 235.603 332.292C236.015 319.706 245.802 318.333 250.028 318.333C254.245 318.333 264.033 319.706 264.445 332.292C264.268 338.618 261.719 342.11 258.669 344Z" fill="#DDE4E8"/>
<path d="M321.995 60.0006C321.334 20.6178 291 0 261.351 0C231.723 0 201.375 20.6105 200.707 60.0006V60.7904C200.771 68.3215 202.116 75.7862 204.682 82.8625L159.469 128.306C141.753 114.118 119.289 106.898 97.0761 106.898C49.6439 106.898 1.07283 139.896 0 202.952V203.927C1.06548 266.983 49.6366 299.981 97.0687 299.988C144.494 299.988 193.065 266.991 194.137 203.927V202.96C194.036 190.352 191.679 177.865 187.179 166.094L237.036 116.008C244.756 119.159 253.01 120.778 261.343 120.776C290.971 120.776 321.319 100.173 321.987 60.7757V59.9858L321.995 60.0006ZM97.0099 243.044C78.7793 243.044 57.3301 232.65 56.5953 203.425C56.9627 188.801 62.4738 178.895 70.2334 172.649C77.993 166.404 87.8689 163.791 97.0099 163.791C115.248 163.791 136.69 174.177 137.425 203.41C136.69 232.657 115.27 243.044 97.0099 243.044ZM261.351 74.3585C257.133 74.3585 247.338 72.9855 246.926 60.3992C247.345 47.8056 257.126 46.4326 261.351 46.4326C265.569 46.4326 275.356 47.8056 275.775 60.3918C275.356 72.9855 265.569 74.3585 261.351 74.3585Z" fill="#DDE4E8"/>
</g>
</svg>
