<svg width="129" height="44" viewBox="0 0 129 44" fill="none" xmlns="http://www.w3.org/2000/svg">
<g clip-path="url(#clip0_260_2434)">
<path d="M42.8326 27.9127V13.6508H46.7539V28.0699C46.7539 28.8969 47.1433 29.1541 47.4635 29.1541C47.6142 29.1541 48.1847 29.1996 48.4078 29.1475L48.4613 32.1514C48.0283 32.3326 47.3343 32.2507 46.4427 32.2507C43.7522 32.2507 42.8326 30.5329 42.8326 27.9127Z" fill="#EAEAEA"/>
<path d="M49.8527 28.3453C49.8815 24.8038 52.0385 24.6334 57.2729 24.0933C57.1905 22.9602 56.8374 21.2672 55.4057 21.1514C54.8714 21.1076 54.03 21.2498 53.578 22.6914L50.0799 22.7502C50.6299 19.0383 53.8917 18.5677 55.9696 18.6744C59.238 18.8398 61.2262 20.5659 61.2262 24.5341L61.3999 31.9116L58.0245 31.9372L57.9776 30.4899C57.072 31.7933 55.2822 32.2507 53.7953 32.2507C51.384 32.2507 49.8354 30.5271 49.8527 28.3453ZM57.3066 28.1749V25.9129C54.5182 26.2809 53.6093 27.0608 53.6093 28.0401C53.6093 28.8746 54.1955 29.2807 55.1274 29.2807C56.0133 29.2832 56.6093 28.8531 57.3066 28.1749Z" fill="#EAEAEA"/>
<path d="M63.1634 28.3874L66.7159 28.3576C67.1275 29.7049 68.229 29.6603 68.3377 29.6603C69.4812 29.6603 69.6969 28.9763 69.6969 28.2981C69.6969 27.4446 68.3855 27.0575 67.0229 26.5356C65.4011 25.9219 63.5215 24.8682 63.5215 22.7311C63.5215 20.3202 65.5238 18.6785 68.5773 18.6785C70.605 18.6785 72.9514 19.9505 73.1234 22.2018L69.9003 22.2845C69.6492 21.8503 69.389 21.5343 68.7 21.5211C67.6873 21.5004 67.1884 21.909 67.1884 22.5549C67.1884 23.382 68.4274 23.6971 69.799 24.1851C71.4744 24.7913 73.363 25.7143 73.363 28.0822C73.363 30.4253 71.4695 32.2589 67.9294 32.2589C64.7112 32.2506 63.6352 30.4898 63.1634 28.3874Z" fill="#EAEAEA"/>
<path d="M76.3317 27.2287V22H74.5246V19.1375L76.5515 18.9895L76.5326 15.5266L80.253 15.5505V18.9895H83.4251V22H80.253V27.1849C80.253 28.6529 80.9338 29.2426 81.9662 29.2426C82.4017 29.2426 83.5181 29.3253 83.8663 29.2021L83.9931 32.0141C82.972 32.188 81.9373 32.2677 80.9017 32.2523C77.6317 32.2507 76.3317 30.2293 76.3317 27.2287Z" fill="#EAEAEA"/>
<path d="M86.0175 27.9127V13.6508H89.938V28.0699C89.938 28.8969 90.3274 29.1541 90.6477 29.1541C90.7983 29.1541 91.4042 29.2369 91.6265 29.1864L91.587 32.1093C91.154 32.2904 90.5168 32.2507 89.6268 32.2507C86.9371 32.2507 86.0175 30.5329 86.0175 27.9127Z" fill="#EAEAEA"/>
<path d="M93.3414 15.0874C93.3414 13.9113 94.2956 13.0817 95.6112 13.0817C96.9268 13.0817 97.8801 13.9088 97.8801 15.0874C97.8801 16.2659 96.926 17.093 95.6112 17.093C94.2964 17.093 93.3414 16.2544 93.3414 15.0874ZM93.646 18.987H97.5648V31.9372H93.646V18.987Z" fill="#EAEAEA"/>
<path d="M101.008 18.987H104.206L104.489 20.6271H104.586C105.7 19.58 107.033 18.6744 108.838 18.6744C111.719 18.6744 112.943 20.6593 112.943 23.8981V31.9372H109.022V24.3894C109.022 22.526 108.51 21.943 107.375 21.943C106.387 21.943 105.788 22.3912 104.925 23.2009V31.9372H101.004L101.008 18.987Z" fill="#EAEAEA"/>
<path d="M116.265 13.6508H120.097V24.1264H120.195L124.394 18.987H128.651L124.016 24.3249L129.002 31.9339H124.754L121.777 26.883L120.099 28.7464V31.9339H116.266L116.265 13.6508Z" fill="#EAEAEA"/>
<path d="M36.081 6.72241C36.0069 2.31 32.6084 0 29.2865 0C25.967 0 22.5669 2.30918 22.492 6.72241V6.8109C22.4992 7.65467 22.6498 8.49101 22.9373 9.28384L17.8717 14.3753C15.8868 12.7856 13.37 11.9768 10.8813 11.9768C5.56703 11.9768 0.125173 15.6738 0.00497437 22.7386V22.8477C0.124349 29.9126 5.56621 33.6096 10.8805 33.6104C16.1939 33.6104 21.6357 29.9134 21.7559 22.8477V22.7394C21.7445 21.3268 21.4804 19.9278 20.9763 18.609L26.5622 12.9974C27.4272 13.3504 28.352 13.5319 29.2856 13.5317C32.6051 13.5317 36.0052 11.2233 36.0801 6.80925V6.72075L36.081 6.72241ZM10.8739 27.2304C8.83132 27.2304 6.42818 26.0659 6.34585 22.7915C6.38701 21.1531 7.00447 20.0432 7.87385 19.3435C8.74323 18.6438 9.84972 18.351 10.8739 18.351C12.9172 18.351 15.3196 19.5147 15.4019 22.7899C15.3196 26.0667 12.9197 27.2304 10.8739 27.2304ZM29.2865 8.33105C28.8139 8.33105 27.7165 8.17722 27.6704 6.76707C27.7173 5.35609 28.8131 5.20226 29.2865 5.20226C29.759 5.20226 30.8556 5.35609 30.9025 6.76624C30.8556 8.17722 29.759 8.33105 29.2865 8.33105Z" fill="#34E13C"/>
<path d="M34.8155 37.1891C34.7414 32.7759 31.3413 30.4667 28.021 30.4667C26.7863 30.4646 25.5721 30.7837 24.4966 31.393L21.7493 29.059C21.0438 30.7132 20.2304 31.7685 18.6736 32.8222L21.5213 35.1702C21.3329 35.8265 21.2335 36.5053 21.2257 37.1883V37.2768C21.3006 41.69 24.7008 44 28.021 44C31.3413 44 34.7414 41.6908 34.8164 37.2776V37.1891H34.8155ZM28.9859 38.5414C28.6924 38.7134 28.3575 38.8009 28.0177 38.7944C27.5444 38.7944 26.4478 38.6406 26.4016 37.2296C26.4478 35.8195 27.5444 35.6656 28.0177 35.6656C28.4903 35.6656 29.5869 35.8195 29.633 37.2296C29.6132 37.9384 29.3276 38.3296 28.9859 38.5414Z" fill="#34E13C"/>
</g>
<defs>
<clipPath id="clip0_260_2434">
<rect width="129" height="44" fill="white"/>
</clipPath>
</defs>
</svg>
