<svg width="22" height="20" viewBox="0 0 22 20" fill="none" xmlns="http://www.w3.org/2000/svg">
<path d="M0.333496 1.99984C0.333496 1.64622 0.473972 1.30708 0.724021 1.05703C0.974069 0.80698 1.31321 0.666504 1.66683 0.666504H20.3335C20.6871 0.666504 21.0263 0.80698 21.2763 1.05703C21.5264 1.30708 21.6668 1.64622 21.6668 1.99984C21.6668 2.35346 21.5264 2.6926 21.2763 2.94265C21.0263 3.19269 20.6871 3.33317 20.3335 3.33317H1.66683C1.31321 3.33317 0.974069 3.19269 0.724021 2.94265C0.473972 2.6926 0.333496 2.35346 0.333496 1.99984Z" fill="#F1F5F5"/>
<path d="M0.333496 17.9998C0.333496 17.6462 0.473972 17.3071 0.724021 17.057C0.974069 16.807 1.31321 16.6665 1.66683 16.6665H20.3335C20.6871 16.6665 21.0263 16.807 21.2763 17.057C21.5264 17.3071 21.6668 17.6462 21.6668 17.9998C21.6668 18.3535 21.5264 18.6926 21.2763 18.9426C21.0263 19.1927 20.6871 19.3332 20.3335 19.3332H1.66683C1.31321 19.3332 0.974069 19.1927 0.724021 18.9426C0.473972 18.6926 0.333496 18.3535 0.333496 17.9998Z" fill="#F1F5F5"/>
<path d="M9.66683 8.6665C9.31321 8.6665 8.97407 8.80698 8.72402 9.05703C8.47397 9.30708 8.3335 9.64622 8.3335 9.99984C8.3335 10.3535 8.47397 10.6926 8.72402 10.9426C8.97407 11.1927 9.31321 11.3332 9.66683 11.3332H20.3335C20.6871 11.3332 21.0263 11.1927 21.2763 10.9426C21.5264 10.6926 21.6668 10.3535 21.6668 9.99984C21.6668 9.64622 21.5264 9.30708 21.2763 9.05703C21.0263 8.80698 20.6871 8.6665 20.3335 8.6665H9.66683Z" fill="#F1F5F5"/>
</svg>
