<svg width="337" height="100" viewBox="0 0 337 100" fill="none" xmlns="http://www.w3.org/2000/svg">
<rect x="0.5" y="0.5" width="336" height="99" rx="9.5" stroke="white"/>
<path d="M118.544 25.5685C118.544 27.6635 117.924 29.331 116.682 30.576C115.269 32.056 113.432 32.796 111.172 32.796C109.004 32.796 107.164 32.046 105.652 30.5435C104.134 29.0435 103.379 27.181 103.379 24.961C103.379 22.7385 104.134 20.8785 105.652 19.376C107.164 17.876 109.004 17.1235 111.172 17.1235C112.244 17.1235 113.274 17.3335 114.249 17.7535C115.227 18.1735 116.009 18.731 116.597 19.4285L115.277 20.7485C114.284 19.5635 112.917 18.9685 111.172 18.9685C109.592 18.9685 108.227 19.5235 107.074 20.6335C105.922 21.746 105.347 23.186 105.347 24.961C105.347 26.7335 105.922 28.176 107.074 29.286C108.227 30.3985 109.592 30.951 111.172 30.951C112.847 30.951 114.242 30.3935 115.362 29.276C116.087 28.5485 116.504 27.5385 116.617 26.2385H111.172V24.436H118.439C118.509 24.8285 118.544 25.206 118.544 25.5685Z" fill="white"/>
<path d="M118.544 25.5685C118.544 27.6635 117.924 29.331 116.682 30.576C115.269 32.056 113.432 32.796 111.172 32.796C109.004 32.796 107.164 32.046 105.652 30.5435C104.134 29.0435 103.379 27.181 103.379 24.961C103.379 22.7385 104.134 20.8785 105.652 19.376C107.164 17.876 109.004 17.1235 111.172 17.1235C112.244 17.1235 113.274 17.3335 114.249 17.7535C115.227 18.1735 116.009 18.731 116.597 19.4285L115.277 20.7485C114.284 19.5635 112.917 18.9685 111.172 18.9685C109.592 18.9685 108.227 19.5235 107.074 20.6335C105.922 21.746 105.347 23.186 105.347 24.961C105.347 26.7335 105.922 28.176 107.074 29.286C108.227 30.3985 109.592 30.951 111.172 30.951C112.847 30.951 114.242 30.3935 115.362 29.276C116.087 28.5485 116.504 27.5385 116.617 26.2385H111.172V24.436H118.439C118.509 24.8285 118.544 25.206 118.544 25.5685Z" stroke="white" stroke-width="0.00129032" stroke-miterlimit="10"/>
<path d="M130.064 19.297H123.234V24.052H129.394V25.8545H123.234V30.6095H130.064V32.4545H121.307V17.4545H130.064V19.297Z" fill="white"/>
<path d="M130.064 19.297H123.234V24.052H129.394V25.8545H123.234V30.6095H130.064V32.4545H121.307V17.4545H130.064V19.297Z" stroke="white" stroke-width="0.00129032" stroke-miterlimit="10"/>
<path d="M138.209 32.4545H136.282V19.297H132.092V17.4545H142.399V19.297H138.209V32.4545Z" fill="white"/>
<path d="M138.209 32.4545H136.282V19.297H132.092V17.4545H142.399V19.297H138.209V32.4545Z" stroke="white" stroke-width="0.00129032" stroke-miterlimit="10"/>
<path d="M149.854 17.4545H151.781V32.4545H149.854V17.4545Z" fill="white"/>
<path d="M149.854 17.4545H151.781V32.4545H149.854V17.4545Z" stroke="white" stroke-width="0.00129032" stroke-miterlimit="10"/>
<path d="M160.323 32.4545H158.395V19.297H154.205V17.4545H164.513V19.297H160.323V32.4545Z" fill="white"/>
<path d="M160.323 32.4545H158.395V19.297H154.205V17.4545H164.513V19.297H160.323V32.4545Z" stroke="white" stroke-width="0.00129032" stroke-miterlimit="10"/>
<path d="M174.441 29.266C175.551 30.391 176.908 30.951 178.516 30.951C180.123 30.951 181.481 30.391 182.591 29.266C183.701 28.141 184.258 26.706 184.258 24.961C184.258 23.216 183.701 21.7785 182.591 20.656C181.481 19.531 180.123 18.9685 178.516 18.9685C176.908 18.9685 175.551 19.531 174.441 20.656C173.333 21.7785 172.776 23.216 172.776 24.961C172.776 26.706 173.333 28.141 174.441 29.266ZM184.016 30.521C182.541 32.0385 180.708 32.796 178.516 32.796C176.323 32.796 174.491 32.0385 173.018 30.521C171.543 29.006 170.808 27.1535 170.808 24.961C170.808 22.7685 171.543 20.9135 173.018 19.3985C174.491 17.8835 176.323 17.1235 178.516 17.1235C180.696 17.1235 182.523 17.886 184.006 19.4085C185.486 20.931 186.226 22.781 186.226 24.961C186.226 27.1535 185.488 29.006 184.016 30.521Z" fill="white"/>
<path d="M174.441 29.266C175.551 30.391 176.908 30.951 178.516 30.951C180.123 30.951 181.481 30.391 182.591 29.266C183.701 28.141 184.258 26.706 184.258 24.961C184.258 23.216 183.701 21.7785 182.591 20.656C181.481 19.531 180.123 18.9685 178.516 18.9685C176.908 18.9685 175.551 19.531 174.441 20.656C173.333 21.7785 172.776 23.216 172.776 24.961C172.776 26.706 173.333 28.141 174.441 29.266ZM184.016 30.521C182.541 32.0385 180.708 32.796 178.516 32.796C176.323 32.796 174.491 32.0385 173.018 30.521C171.543 29.006 170.808 27.1535 170.808 24.961C170.808 22.7685 171.543 20.9135 173.018 19.3985C174.491 17.8835 176.323 17.1235 178.516 17.1235C180.696 17.1235 182.523 17.886 184.006 19.4085C185.486 20.931 186.226 22.781 186.226 24.961C186.226 27.1535 185.488 29.006 184.016 30.521Z" stroke="white" stroke-width="0.00129032" stroke-miterlimit="10"/>
<path d="M188.949 32.4545V17.4545H191.294L198.584 29.122H198.669L198.584 26.232V17.4545H200.514V32.4545H198.501L190.874 20.2195H190.791L190.874 23.112V32.4545H188.949Z" fill="white"/>
<path d="M188.949 32.4545V17.4545H191.294L198.584 29.122H198.669L198.584 26.232V17.4545H200.514V32.4545H198.501L190.874 20.2195H190.791L190.874 23.112V32.4545H188.949Z" stroke="white" stroke-width="0.00129032" stroke-miterlimit="10"/>
<path d="M267.334 74.9545H271.999V43.702H267.334V74.9545ZM309.351 54.9595L304.004 68.5095H303.844L298.294 54.9595H293.269L301.591 73.897L296.849 84.432H301.711L314.539 54.9595H309.351ZM282.896 71.4045C281.366 71.4045 279.236 70.642 279.236 68.7495C279.236 66.3395 281.889 65.4145 284.181 65.4145C286.231 65.4145 287.199 65.857 288.444 66.4595C288.081 69.3545 285.589 71.4045 282.896 71.4045ZM283.459 54.277C280.081 54.277 276.581 55.7645 275.136 59.062L279.276 60.7895C280.161 59.062 281.809 58.497 283.539 58.497C285.951 58.497 288.404 59.9445 288.444 62.5195V62.8395C287.599 62.357 285.791 61.6345 283.579 61.6345C279.116 61.6345 274.571 64.087 274.571 68.6695C274.571 72.852 278.231 75.547 282.331 75.547C285.469 75.547 287.199 74.1395 288.284 72.4895H288.444V74.902H292.946V62.9195C292.946 57.372 288.806 54.277 283.459 54.277ZM254.629 58.7645H247.994V48.052H254.629C258.116 48.052 260.096 50.9395 260.096 53.407C260.096 55.8295 258.116 58.7645 254.629 58.7645ZM254.509 43.702H243.331V74.9545H247.994V63.1145H254.509C259.679 63.1145 264.761 59.3695 264.761 53.407C264.761 47.4445 259.679 43.702 254.509 43.702ZM193.556 71.4095C190.334 71.4095 187.636 68.712 187.636 65.007C187.636 61.262 190.334 58.522 193.556 58.522C196.739 58.522 199.234 61.262 199.234 65.007C199.234 68.712 196.739 71.4095 193.556 71.4095ZM198.914 56.7095H198.751C197.704 55.462 195.691 54.3345 193.154 54.3345C187.836 54.3345 182.964 59.0045 182.964 65.007C182.964 70.967 187.836 75.5995 193.154 75.5995C195.691 75.5995 197.704 74.472 198.751 73.182H198.914V74.7145C198.914 78.782 196.739 80.957 193.234 80.957C190.374 80.957 188.601 78.902 187.876 77.1695L183.809 78.862C184.976 81.682 188.079 85.1445 193.234 85.1445C198.711 85.1445 203.344 81.922 203.344 74.0695V54.977H198.914V56.7095ZM206.566 74.9545H211.239V43.6995H206.566V74.9545ZM218.124 64.6445C218.004 60.537 221.306 58.442 223.681 58.442C225.536 58.442 227.106 59.367 227.629 60.697L218.124 64.6445ZM232.624 61.0995C231.739 58.7245 229.039 54.3345 223.521 54.3345C218.044 54.3345 213.494 58.642 213.494 64.967C213.494 70.927 218.004 75.5995 224.044 75.5995C228.919 75.5995 231.739 72.6195 232.906 70.887L229.281 68.4695C228.074 70.242 226.421 71.4095 224.044 71.4095C221.669 71.4095 219.976 70.322 218.889 68.1895L233.106 62.307L232.624 61.0995ZM119.354 57.597V62.107H130.146C129.824 64.6445 128.979 66.497 127.691 67.7845C126.119 69.357 123.661 71.0895 119.354 71.0895C112.706 71.0895 107.511 65.732 107.511 59.087C107.511 52.4395 112.706 47.0845 119.354 47.0845C122.939 47.0845 125.556 48.4945 127.489 50.307L130.671 47.1245C127.971 44.547 124.389 42.572 119.354 42.572C110.251 42.572 102.599 49.9845 102.599 59.087C102.599 68.1895 110.251 75.5995 119.354 75.5995C124.266 75.5995 127.971 73.987 130.871 70.967C133.854 67.987 134.779 63.7995 134.779 60.4145C134.779 59.367 134.699 58.402 134.536 57.597H119.354ZM147.051 71.4095C143.829 71.4095 141.049 68.752 141.049 64.967C141.049 61.1395 143.829 58.522 147.051 58.522C150.271 58.522 153.051 61.1395 153.051 64.967C153.051 68.752 150.271 71.4095 147.051 71.4095ZM147.051 54.3345C141.169 54.3345 136.376 58.8045 136.376 64.967C136.376 71.0895 141.169 75.5995 147.051 75.5995C152.931 75.5995 157.724 71.0895 157.724 64.967C157.724 58.8045 152.931 54.3345 147.051 54.3345ZM170.334 71.4095C167.111 71.4095 164.331 68.752 164.331 64.967C164.331 61.1395 167.111 58.522 170.334 58.522C173.556 58.522 176.334 61.1395 176.334 64.967C176.334 68.752 173.556 71.4095 170.334 71.4095ZM170.334 54.3345C164.454 54.3345 159.661 58.8045 159.661 64.967C159.661 71.0895 164.454 75.5995 170.334 75.5995C176.214 75.5995 181.006 71.0895 181.006 64.967C181.006 58.8045 176.214 54.3345 170.334 54.3345Z" fill="white"/>
<path d="M30.522 32.7146L45.9345 48.1796C46.9795 49.2296 46.9795 50.9296 45.9345 51.9771L30.502 67.7146L30.522 32.7146ZM35.8495 25.1446L53.117 35.0946L59.2445 38.6246L53.492 44.3971C52.447 45.4446 50.752 45.4446 49.707 44.3971L31.182 25.8171C32.287 24.6771 34.282 24.2171 35.8495 25.1446ZM33.9145 75.3596C32.877 75.3596 31.9545 74.8971 31.292 74.2296L49.707 55.7596C50.752 54.7121 52.447 54.7121 53.492 55.7596L59.162 61.4496L35.772 74.8621C35.2145 75.1871 34.572 75.3596 33.9145 75.3596ZM73.232 53.2121L63.962 58.6946L57.2645 51.9771C56.2195 50.9296 56.2195 49.2296 57.2645 48.1796L64.037 41.3871L73.262 46.8196L73.322 46.8521C74.4895 47.4871 75.212 48.6946 75.212 50.0071C75.212 51.3296 74.4795 52.5421 73.232 53.2121ZM76.142 42.1921L38.537 20.5221C37.1395 19.6921 35.5395 19.2521 33.9145 19.2521C29.7295 19.2521 26.0645 22.1046 25.217 25.9621C25.1245 26.3321 24.9095 27.2921 24.9295 28.2046L24.932 71.8521C24.962 72.7371 25.202 73.9346 25.2395 74.0796C26.2845 77.9846 29.852 80.7096 33.9145 80.7096C35.517 80.7096 37.0895 80.2846 38.442 79.4946L76.062 57.9221C78.982 56.3546 80.797 53.3321 80.797 50.0321C80.797 46.7671 79.0145 43.7646 76.142 42.1921Z" fill="white"/>
</svg>
