<svg width="22" height="14" viewBox="0 0 22 14" fill="none" xmlns="http://www.w3.org/2000/svg">
<g clip-path="url(#clip0_1255_6316)">
<path d="M21.5417 2.19357C21.4172 1.7694 21.1745 1.38537 20.8396 1.08232C20.4952 0.769948 20.0731 0.546501 19.6131 0.433069C17.8916 -5.56e-05 10.9946 -5.55026e-05 10.9946 -5.55026e-05C8.1193 -0.0312819 5.24472 0.10606 2.38708 0.411194C1.92709 0.533006 1.50576 0.761445 1.16058 1.07619C0.821411 1.38769 0.575744 1.77182 0.447411 2.19269C0.139129 3.77797 -0.0106548 5.38762 7.747e-05 6.99994C-0.0109225 8.61082 0.138494 10.2199 0.447411 11.8072C0.572994 12.2263 0.817744 12.6087 1.15783 12.9176C1.49791 13.2264 1.92141 13.4496 2.38708 13.5677C4.13149 13.9999 10.9946 13.9999 10.9946 13.9999C13.8735 14.0312 16.7518 13.8939 19.6131 13.5887C20.0731 13.4753 20.4952 13.2518 20.8396 12.9394C21.1744 12.6365 21.4168 12.2524 21.5408 11.8282C21.8572 10.2435 22.011 8.63321 22.0001 7.02007C22.0239 5.4001 21.8703 3.78219 21.5417 2.19269V2.19357ZM8.80191 9.99594V4.00482L14.5402 7.00082L8.80191 9.99594Z" fill="#F1F5F5"/>
</g>
<defs>
<clipPath id="clip0_1255_6316">
<rect width="22" height="14" fill="white"/>
</clipPath>
</defs>
</svg>
